<?xml version="1.0" standalone="no"?>
<!DOCTYPE svg PUBLIC "-//W3C//DTD SVG 20010904//EN"
 "http://www.w3.org/TR/2001/REC-SVG-20010904/DTD/svg10.dtd">
<svg version="1.0" xmlns="http://www.w3.org/2000/svg"
 width="656.000000pt" height="656.000000pt" viewBox="0 0 656.000000 656.000000"
 preserveAspectRatio="xMidYMid meet">
<metadata>
Created by potrace 1.11, written by Peter Selinger 2001-2013
</metadata>
<g transform="translate(0.000000,656.000000) scale(0.100000,-0.100000)"
fill="#000000" stroke="none">
<path d="M1477 6044 c-3 -3 -164 -12 -241 -13 l-48 -1 7 -72 c4 -40 9 -89 11
-109 1 -20 6 -59 9 -85 3 -27 8 -71 10 -99 4 -55 14 -146 20 -185 2 -14 6 -56
10 -95 3 -38 8 -88 10 -110 5 -44 15 -143 20 -190 5 -60 16 -171 20 -205 3
-19 7 -62 10 -95 3 -33 7 -69 9 -80 3 -11 5 -30 5 -42 1 -23 4 -23 106 -9 17
3 57 7 90 11 33 3 74 8 90 10 33 4 133 14 210 20 298 25 929 25 1135 0 19 -2
65 -7 101 -9 37 -3 82 -8 100 -10 19 -3 61 -8 94 -11 33 -3 69 -8 80 -11 11
-2 34 -6 50 -8 63 -8 219 -37 315 -59 36 -8 81 -18 100 -21 19 -3 60 -13 90
-22 30 -8 64 -17 75 -19 11 -3 52 -14 90 -25 39 -11 77 -22 85 -24 31 -8 326
-109 340 -116 9 -5 -3 -11 -35 -15 -28 -4 -59 -9 -70 -11 -10 -2 -37 -6 -60
-9 -67 -10 -135 -21 -220 -36 -33 -6 -73 -13 -90 -15 -16 -3 -41 -7 -55 -11
-35 -9 -44 -10 -87 -16 -21 -3 -92 -18 -158 -32 -66 -14 -131 -28 -145 -31
-49 -10 -277 -64 -395 -94 -66 -17 -129 -32 -140 -34 -11 -2 -27 -6 -35 -9
-13 -5 -105 -31 -150 -41 -8 -2 -78 -23 -155 -46 -77 -23 -148 -43 -158 -45
-9 -2 -22 -7 -27 -10 -5 -3 -20 -8 -32 -10 -49 -10 -557 -182 -663 -225 -11
-5 -65 -25 -120 -45 -55 -20 -109 -40 -120 -45 -11 -5 -41 -18 -67 -29 -26
-12 -49 -21 -52 -21 -2 0 -69 -27 -148 -60 -145 -62 -181 -78 -252 -111 -22
-11 -46 -19 -53 -19 -7 0 -13 -5 -13 -10 0 -6 -3 -9 -7 -8 -5 1 -30 -8 -58
-21 -27 -13 -79 -37 -115 -53 -86 -40 -434 -214 -535 -268 -238 -127 -266
-143 -262 -154 9 -22 59 -181 61 -191 1 -5 7 -23 13 -40 6 -16 25 -73 41 -125
17 -52 57 -178 90 -280 33 -102 79 -246 103 -320 45 -144 55 -164 75 -156 7 3
50 8 96 11 46 4 99 9 118 10 72 7 400 18 540 18 142 0 500 -11 570 -18 19 -1
80 -6 135 -10 126 -9 148 -11 210 -19 52 -7 97 -12 180 -22 28 -3 59 -7 70 -9
11 -2 36 -6 55 -9 19 -2 64 -10 100 -16 36 -6 79 -13 95 -16 17 -3 39 -7 50
-9 11 -2 31 -6 45 -9 14 -3 37 -8 53 -11 15 -3 38 -7 52 -10 14 -3 35 -7 48
-9 12 -2 53 -11 90 -21 37 -9 73 -18 80 -19 43 -9 290 -81 382 -112 22 -7 78
-27 125 -44 47 -17 96 -35 110 -40 59 -19 346 -144 352 -154 4 -6 8 -8 8 -4 0
8 154 -71 323 -167 110 -63 416 -275 473 -329 6 -6 33 -29 59 -51 67 -56 66
-55 117 -104 l47 -44 123 121 c68 66 168 164 223 217 55 53 146 141 201 196
l101 100 -112 112 c-108 107 -210 201 -285 263 -19 16 -41 35 -48 42 -8 6 -53
42 -100 79 -48 37 -89 70 -92 73 -3 3 -27 20 -55 39 -27 19 -78 54 -113 78
-35 24 -67 43 -72 43 -4 0 -10 3 -12 8 -5 12 -187 124 -313 192 -119 65 -372
189 -480 235 -60 26 -123 53 -140 61 -52 22 -257 100 -315 119 -30 10 -61 22
-67 28 -7 5 -13 7 -13 3 0 -3 -17 1 -37 8 -45 17 -138 45 -248 76 -44 12 -87
24 -95 27 -8 2 -16 4 -17 4 -2 0 -17 5 -35 10 -33 10 -123 33 -169 43 -13 3
-62 14 -109 25 -47 11 -89 21 -93 21 -5 0 -5 5 -2 11 4 6 9 8 12 5 3 -3 15 0
27 6 11 7 26 13 31 14 6 1 120 39 255 84 135 45 252 83 260 85 8 2 69 20 135
40 66 20 127 38 135 40 8 2 56 14 105 28 50 14 140 37 200 51 61 14 124 30
140 35 17 5 48 13 70 17 22 4 45 9 50 10 6 2 24 6 40 9 17 3 38 8 47 11 9 3
27 7 40 9 29 6 165 33 198 41 14 3 45 9 70 14 25 4 59 11 75 14 17 3 44 8 60
11 17 2 48 8 70 11 22 4 47 8 55 9 8 1 31 5 50 9 46 8 83 14 139 22 25 3 57 8
71 10 14 3 39 6 55 8 17 2 48 6 70 9 38 6 90 12 195 23 25 2 59 6 75 9 17 2
68 7 115 10 47 4 96 8 110 11 44 7 291 17 438 18 l143 1 28 55 c15 30 34 66
41 80 8 14 14 27 15 30 0 3 61 127 134 275 74 149 135 272 136 275 0 3 17 37
37 76 28 56 33 75 25 90 -12 23 -276 285 -337 336 -25 20 -56 46 -70 58 -55
48 -156 128 -227 180 -26 19 -50 37 -53 40 -15 15 -222 150 -230 150 -6 0 -10
3 -10 8 0 4 -21 19 -47 32 -27 14 -50 27 -53 30 -26 28 -467 259 -630 330 -41
18 -93 40 -115 50 -188 84 -511 198 -740 261 -22 6 -47 14 -55 17 -8 3 -20 6
-25 7 -6 1 -84 21 -175 43 -91 22 -178 43 -195 46 -32 7 -53 11 -130 27 -27 6
-59 12 -70 14 -11 1 -33 5 -50 8 -80 15 -208 36 -213 35 -4 0 -9 1 -12 2 -9 3
-35 7 -94 14 -32 4 -68 9 -80 11 -41 7 -111 15 -176 20 -36 3 -85 7 -110 10
-46 5 -143 12 -284 21 -43 2 -82 7 -87 9 -4 3 -10 1 -14 -4 -3 -6 -15 -7 -29
-2 -20 8 -751 13 -759 5z"/>
</g>
</svg>
