<svg xmlns="http://www.w3.org/2000/svg" xmlns:xlink="http://www.w3.org/1999/xlink" viewBox="0 0 81.75 69.1"><defs><style>.cls-1{fill:url(#linear-gradient);}</style><linearGradient id="linear-gradient" x1="58.17" y1="3.49" x2="22.44" y2="65.39" gradientUnits="userSpaceOnUse"><stop offset="0.1" stop-color="#e6528b"/><stop offset="0.28" stop-color="#e65686"/><stop offset="0.49" stop-color="#e86078"/><stop offset="0.72" stop-color="#ea7260"/><stop offset="0.96" stop-color="#ed8a40"/><stop offset="1" stop-color="#ee8f39"/></linearGradient></defs><g id="Layer_2" data-name="Layer 2"><g id="Layer_2-2" data-name="Layer 2"><path class="cls-1" d="M81.75,22.13l-.55-.63-.45-.5-.87-.9c-.58-.57-1.16-1.13-1.75-1.65-1.17-1.06-2.36-2.05-3.59-3a63.14,63.14,0,0,0-7.67-5,77,77,0,0,0-16.73-6.9c-2.89-.83-5.81-1.47-8.75-2S35.48.61,32.52.39A112.75,112.75,0,0,0,14.8.31l1.78,17.24a96.43,96.43,0,0,1,15.05-.94c2.51,0,5,.23,7.46.47s4.92.66,7.33,1.19a65.67,65.67,0,0,1,9.65,2.87,158.35,158.35,0,0,0-19,3.86,163.28,163.28,0,0,0-19,6.34A167.49,167.49,0,0,0,0,40H0l4.5,14c.42-.06,1.14-.13,1.73-.18l1.91-.14c1.29-.09,2.59-.13,3.89-.17,2.61-.05,5.23,0,7.84.13A92.24,92.24,0,0,1,35.3,55.67a66.61,66.61,0,0,1,14.42,5,52.4,52.4,0,0,1,6.46,3.77,48.83,48.83,0,0,1,5.74,4.68L70,61.28A59.5,59.5,0,0,0,63.14,55a63.19,63.19,0,0,0-7.72-5.1A79,79,0,0,0,38.6,43c-2.14-.61-4.3-1.12-6.47-1.59,2.88-1,5.8-2,8.74-2.87a143.6,143.6,0,0,1,17.82-4.08c3-.49,6-.88,9-1.16,1.5-.13,3-.25,4.5-.32l2.21-.08,1.08,0h.95Z"/></g></g></svg>