<svg id="Capa_1" enable-background="new 0 0 512.545 512.545" height="512" viewBox="0 0 512.545 512.545" width="512" xmlns="http://www.w3.org/2000/svg"><g><g><g id="XMLID_126_"><g><path d="m457.353 21.991v468.56c0 8.01-6.49 14.49-14.49 14.49h-373.18c-8 0-14.49-6.48-14.49-14.49v-468.56c0-8 6.49-14.49 14.49-14.49h373.18c8 0 14.49 6.49 14.49 14.49z" fill="#e8ad8c"/></g></g><path d="m122.988 496.585c-8.003 0-14.49-6.487-14.49-14.49 0-3.957 3.25-7.107 7.207-7.052.145.002.29.003.436.003h280.264c17.092 0 30.948-13.856 30.948-30.948v-375.65c0-17.092-13.856-30.948-30.948-30.948h-280.264c-.026 0-.053 0-.079 0-4.152.01-7.563-3.253-7.563-7.405v-16.56c0-2.156.484-4.195 1.329-6.034h-40.145c-8.003 0-14.49 6.487-14.49 14.49v468.56c0 8.003 6.487 14.49 14.49 14.49h373.18c5.846 0 10.873-3.467 13.163-8.456z" fill="#e19974"/><path d="m100.193 444.097v-375.649c0-8.808 7.14-15.948 15.948-15.948h280.264c8.808 0 15.948 7.14 15.948 15.948v375.649c0 8.808-7.14 15.948-15.948 15.948h-280.264c-8.808 0-15.948-7.14-15.948-15.948z" fill="#bc7c63"/><path d="m373.102 82.501h-233.658c-5.109 0-9.251 4.142-9.251 9.251v329.038c0 5.109 4.142 9.251 9.251 9.251h28.689l27.95-10.09h143.581l5.749 10.09h27.689c5.109 0 9.251-4.142 9.251-9.251v-329.038c0-5.109-4.142-9.251-9.251-9.251z" fill="#fee97d"/><path d="m321.08 178.751c0-33.71-29.068-61.038-64.925-61.038h-4.63c-35.857 0-64.925 27.328-64.925 61.038v197.591h134.48z" fill="#a79ba7"/><g><path d="m294.085 344.636-15.083-9.035v-106.74-8.81h-54.96v75.716c0 3.211-1.898 6.119-4.837 7.411l-8.263 3.633c-7 3.07-13.33 7.18-18.85 12.1v.01l.009.005 26.449 43.809z" fill="#ffe5c2"/></g><g id="XMLID_128_"><g><path d="m243.089 220.051h-19.046v75.716c0 3.211-1.898 6.119-4.837 7.411l-8.263 3.633c-7 3.07-13.33 7.18-18.85 12.1v.01l.009.005 15.491 25.658c3.069-4.289 6.6-8.255 10.567-11.793 5.52-4.92 11.85-9.03 18.85-12.1l8.263-3.633c2.94-1.293 4.837-4.2 4.837-7.411v-7.499c0-5.65 3.364-10.785 8.58-12.955 7.598-3.162 14.477-7.717 20.312-13.35v-41.911-5.07-8.81h-35.913z" fill="#fed2a4"/><path d="m279.003 183.801v45.06c0 25.03-20.29 45.33-45.32 45.33-12.51 0-23.85-5.07-32.05-13.28-8.2-8.2-13.28-19.53-13.28-32.05v-45.06c0-1.62.98-3.08 2.47-3.7 7.1-2.95 13.83-6.68 20.06-11.09 6.23-4.42 11.98-9.53 17.12-15.25l2.14-2.39c1.89-2.1 5.19-2.1 7.08 0l2.14 2.39c10.28 11.44 22.98 20.44 37.18 26.34.75.31 1.36.83 1.79 1.48.43.64.67 1.41.67 2.22z" fill="#ffe5c2"/><path d="m207.362 190.979c7.192-4.789 13.83-10.326 19.764-16.524l2.471-2.59c2.182-2.276 5.992-2.276 8.173 0l2.471 2.59c10.853 11.336 24.048 20.453 38.762 26.82v-10.509c0-.81-.24-1.58-.67-2.22-.43-.65-1.04-1.17-1.79-1.48-14.2-5.9-26.9-14.9-37.18-26.34l-2.14-2.39c-1.89-2.1-5.19-2.1-7.08 0l-2.14 2.39c-5.14 5.72-10.89 10.83-17.12 15.25-6.23 4.41-12.96 8.14-20.06 11.09-1.49.62-2.47 2.08-2.47 3.7v10.514c6.675-2.889 13.043-6.337 19.009-10.301z" fill="#fed2a4"/></g></g><g id="XMLID_142_"><g><g id="XMLID_143_"><g><path d="m345.413 372.381v57.66h-177.28v-57.66c0-20.77 8.97-40.1 23.96-53.47v.01l6.38 3.58c24.81 13.89 53.36 18.26 80.53 13.1 12.19-2.32 24.1-6.56 35.28-12.72l5.511-3.044c.991-.547 2.233-.412 3.058.363 2.891 2.715 5.541 5.661 7.931 8.801 9.31 12.22 14.63 27.37 14.63 43.38z" fill="#918291"/></g></g></g></g><g><path d="m194.2 386.261c0-20.77 8.97-40.1 23.96-53.47.419-.374.852-.733 1.281-1.098-7.195-2.369-14.223-5.416-20.968-9.192l-6.38-3.58v-.01c-14.99 13.37-23.96 32.7-23.96 53.47v57.66h26.067z" fill="#7a6d79"/></g><g id="XMLID_160_"><g><path d="m253.483 419.951v10.09h-57.4v-10.09c0-9.15 7.42-16.57 16.58-16.57h24.25c9.15 0 16.57 7.42 16.57 16.57z" fill="#b5adb6"/></g></g></g><g><path d="m442.863 0h-18.855c-4.142 0-7.5 3.358-7.5 7.5s3.358 7.5 7.5 7.5h18.855c3.854 0 6.99 3.136 6.99 6.99v468.564c0 3.854-3.136 6.991-6.99 6.991h-373.18c-3.854 0-6.99-3.136-6.99-6.991v-468.564c0-3.854 3.136-6.99 6.99-6.99h322.362c4.142 0 7.5-3.358 7.5-7.5s-3.358-7.5-7.5-7.5h-322.362c-12.125 0-21.99 9.865-21.99 21.99v468.564c0 12.125 9.865 21.991 21.99 21.991h373.18c12.125 0 21.99-9.865 21.99-21.991v-468.564c0-12.125-9.865-21.99-21.99-21.99z"/><path d="m116.141 45c-12.929 0-23.448 10.519-23.448 23.448v375.649c0 12.929 10.519 23.448 23.448 23.448h280.264c12.929 0 23.448-10.519 23.448-23.448v-375.649c0-12.929-10.519-23.448-23.448-23.448zm288.712 23.448v375.649c0 4.658-3.79 8.448-8.448 8.448h-280.264c-4.658 0-8.448-3.79-8.448-8.448v-375.649c0-4.658 3.79-8.448 8.448-8.448h280.264c4.658 0 8.448 3.79 8.448 8.448z"/><path d="m382.353 75h-252.16c-4.142 0-7.5 3.358-7.5 7.5v35.213c0 4.142 3.358 7.5 7.5 7.5s7.5-3.358 7.5-7.5v-27.713h237.16v332.545h-21.937v-15.468c0-4.142-3.358-7.5-7.5-7.5s-7.5 3.358-7.5 7.5v15.468h-76.929v-2.59c0-13.276-10.8-24.076-24.076-24.076h-24.249c-13.275 0-24.076 10.8-24.076 24.076v2.59h-12.958v-50.167c0-16.762 6.538-32.484 17.661-44.186l1.519.851c18.746 10.499 40.01 16.085 61.496 16.156h.412c21.345 0 42.495-5.443 61.188-15.752l2.309-1.274c1.624 1.703 3.17 3.484 4.602 5.366 8.447 11.101 13.1 24.894 13.1 38.838v2.737c0 4.142 3.358 7.5 7.5 7.5s7.5-3.358 7.5-7.5v-2.737c0-17.206-5.74-34.225-16.163-47.922-4.178-5.49-9.039-10.378-14.469-14.589v-131.115c0-37.792-30.746-68.538-68.538-68.538h-4.353c-37.792 0-68.538 30.746-68.538 68.538v140.809c-12.768 14.244-20.228 32.936-20.228 52.818v50.167h-22.936v-272.87c0-4.142-3.358-7.5-7.5-7.5s-7.5 3.358-7.5 7.5v280.37c0 4.142 3.358 7.5 7.5 7.5h252.16c4.142 0 7.5-3.358 7.5-7.5v-347.545c.003-4.142-3.355-7.5-7.497-7.5zm-186.497 190.686c5.715 5.871 12.779 10.419 20.687 13.14v17.328l-8.62 3.788c-4.257 1.87-8.284 4.095-12.067 6.618zm0-79.58c14.285-6.308 27.288-15.723 37.721-27.332l.105-.116.104.116c10.434 11.61 23.437 21.025 37.721 27.333v42.757c0 20.857-16.969 37.825-37.826 37.825s-37.825-16.968-37.825-37.825zm10.01 131.84c2.569-1.599 5.268-3.031 8.092-4.272l13.103-5.757c2.724-1.197 4.483-3.891 4.483-6.866v-19.409c.71.028 1.422.047 2.139.047 14.819 0 28.223-6.142 37.825-16.003v63.604c-22.209 3-45.034-.781-65.642-11.344zm43.528-192.733h4.353c29.521 0 53.538 24.017 53.538 53.538v139.348c-6.726 3.422-13.685 6.114-20.777 8.095v-97.331-45.06c0-4.662-2.781-8.832-7.087-10.624-13.083-5.444-25.005-13.892-34.478-24.433l-2.144-2.386c-2.321-2.583-5.645-4.064-9.117-4.063-3.473 0-6.795 1.481-9.115 4.063l-2.145 2.386c-7.292 8.115-16.041 14.982-25.649 20.201 4.619-24.852 26.45-43.734 52.621-43.734zm-45.808 294.743c0-5.004 4.072-9.076 9.076-9.076h24.249c5.004 0 9.076 4.072 9.076 9.076v2.59h-42.401z"/></g></g></svg>