<?xml version="1.0" encoding="iso-8859-1"?>
<!-- Generator: Adobe Illustrator 19.0.0, SVG Export Plug-In . SVG Version: 6.00 Build 0)  -->
<svg version="1.1" id="Capa_1" xmlns="http://www.w3.org/2000/svg" xmlns:xlink="http://www.w3.org/1999/xlink" x="0px" y="0px"
	 viewBox="0 0 511.999 511.999" style="enable-background:new 0 0 511.999 511.999;" xml:space="preserve">
<path style="fill:#DADADA;" d="M170.481,87.614h62.106c7.285,0,13.554,5.599,13.897,12.876c0.366,7.769-5.826,14.183-13.515,14.183
	h-55.985c-1.776,0-2.974,1.816-2.273,3.448l14.043,32.761c-9.569-7.023-23.297-1.32-24.91,10.571l-16.807-39.242
	C140.179,106.057,151.664,87.614,170.481,87.614z"/>
<path style="fill:#C0C0C0;" d="M160.797,122.213c-6.857-16.156,4.627-34.598,23.444-34.598c-8.219,0.874-22.831-3.383-33.135,8.616
	c-6.268,7.299-7.749,17.313-4.069,25.982l16.808,39.242c0.716-5.276,4.034-9.723,8.621-12.001L160.797,122.213z"/>
<path style="fill:#635E5E;" d="M197.215,87.614h35.754c7.472,0,13.53,6.057,13.53,13.53s-6.057,13.53-13.53,13.53h-35.754V87.614z"
	/>
<rect x="197.216" y="87.611" style="fill:#4C4846;" width="24.642" height="27.06"/>
<g>
	<path style="fill:#635E5E;" d="M503.799,342.156h0.752c-1.952-15.44-7.637-29.731-16.111-41.947l-0.467,0.41
		c-5.236-7.633-11.558-14.462-18.741-20.268l0.36-0.316c-34.768-27.794-84.569-27.493-118.96,0l0.36,0.316
		c-7.184,5.806-13.506,12.635-18.741,20.268l-0.467-0.41c-8.475,12.216-14.158,26.508-16.111,41.947h0.752
		c-1.153,9.12-0.986,18.41,0.544,27.597h-0.752c7.36,44.168,45.357,78.082,91.334,79.131c0.413,0.013,0.827,0.021,1.242,0.028
		c0.316,0.003,0.627,0.022,0.944,0.022c0.125,0,0.251-0.004,0.376-0.005c0.125,0,0.251,0.005,0.376,0.005
		c0.317,0,0.628-0.018,0.944-0.022c0.414-0.007,0.829-0.016,1.242-0.028c45.977-1.047,83.974-34.963,91.334-79.131h-0.752
		C504.777,360.615,504.957,351.323,503.799,342.156z M342.731,354.117c0-37.234,30.193-67.541,67.38-67.746
		c37.187,0.204,67.38,30.511,67.38,67.746c0,37.235-30.193,67.542-67.38,67.747C372.924,421.659,342.731,391.352,342.731,354.117z"
		/>
	<path style="fill:#635E5E;" d="M105.201,259.373c-29.527-0.922-48.949,12.206-50.21,12.632
		c-0.333,0.292-32.959,16.509-44.045,57.268c-22.252,81.911,66.156,148.934,138.86,106.958l0,0l0,0
		C231.176,389.252,201.727,262.522,105.201,259.373z M136.277,412.796c-28.311,16.345-63.639,9.87-84.543-13.679
		c-18.377-20.711-22.298-50.489-9.865-75.37l0,0c4.083-8.169,9.845-15.569,17.126-21.64l0,0c0.52-0.434,8.01-7.153,20.064-11.585
		l0,0c8.898-3.27,18.188-4.56,27.303-4.012l0,0C174.043,290.558,193.646,379.674,136.277,412.796z"/>
</g>
<g>
	<path style="fill:#4C4846;" d="M48.986,396.133C18.355,353.685,28.607,296.01,67.194,266.079
		c-58.55,23.935-76.94,94.671-41.643,143.584c28.089,38.922,81.809,51.074,124.254,26.567l0,0l0,0
		c3.977-2.296,7.725-4.84,11.236-7.599C120.952,444.695,74.442,431.409,48.986,396.133z"/>
	<path style="fill:#4C4846;" d="M357.05,396.133c-30.412-42.144-20.661-99.905,18.208-130.054
		c-58.33,23.844-76.988,94.601-41.643,143.584c31.206,43.242,92.834,52.495,135.491,18.968
		C429.016,444.695,382.506,431.409,357.05,396.133z"/>
</g>
<circle style="fill:#C0C0C0;" cx="178.444" cy="161.585" r="15.763"/>
<path style="fill:#AFAFB2;" d="M178.33,145.828c-11.988,0.075-19.602,13.129-13.536,23.635c4.353,7.54,13.993,10.122,21.533,5.77
	c2.528-1.459,4.483-3.52,5.822-5.889C180.025,169.42,172.353,156.404,178.33,145.828z"/>
<path style="fill:#D83D3D;" d="M88.805,350.868l74.087-186.828c1.184,7.536,7.686,13.305,15.553,13.305
	c4.006,0,7.651-1.506,10.431-3.967l-9.366,23.618c-0.963,2.429,0.345,5.163,2.841,5.938l109.455,33.945
	c13.183-30.757,12.064-34.323,18.007-38.34c-4.155,11.965,6.789,23.702,19.035,20.358l-12.517,30.997l108.896,95.696
	c4.724,4.15,6.091,11.029,3.131,16.74c-2.414,4.657-7.388,7.423-12.634,7.423h-130.73c6.118-8.054,7.845-18.277,5.227-27.596h84.894
	c1.53,0,2.245-1.895,1.095-2.905l-68.125-59.867c-1.246-1.094-3.2-0.624-3.81,0.917l-20.001,50.438
	c-5.931-7.239-14.987-11.773-25.11-11.542l21.285-53.673c0.623-1.572-0.223-3.344-1.84-3.846l-79.652-24.702
	c-1.514-0.47-2.775,1.231-1.884,2.544l54.774,80.694c-9.49,2.492-17.233,9.294-21.005,18.191l-67.799-99.885l-48.584,122.517
	c-2.148,5.415-7.339,8.715-12.83,8.715c-1.692,0-3.414-0.314-5.082-0.976C89.462,365.972,85.996,357.952,88.805,350.868z"/>
<path style="fill:#B72C2C;" d="M102.542,352.185l69.822-176.074c-4.948-2.08-8.613-6.604-9.472-12.071L88.805,350.868
	c-2.809,7.084,0.656,15.104,7.74,17.913c1.67,0.662,3.39,0.976,5.082,0.976c0.489,0,0.974-0.035,1.456-0.087
	C100.59,364.358,100.207,358.07,102.542,352.185z"/>
<path style="fill:#DADADA;" d="M309.813,198.539c-4.155,11.965,6.789,23.702,19.035,20.358l-12.517,30.997l-24.526-13.016
	C304.989,206.121,303.87,202.555,309.813,198.539z"/>
<path style="fill:#C0C0C0;" d="M315.41,216.425c-5.52-4.036-7.922-11.189-5.596-17.886c-5.973,4.037-5.195,8.449-18.007,38.34
	l12.642,6.709L315.41,216.425z"/>
<path style="fill:#635E5E;" d="M244.05,323.293c-15.114,8.726-20.312,28.123-11.586,43.238
	c8.726,15.114,28.122,20.312,43.238,11.586c15.115-8.726,20.312-28.123,11.586-43.238
	C278.561,319.764,259.165,314.567,244.05,323.293z"/>
<path style="fill:#4C4846;" d="M259.885,319.068c-24.168-0.048-39.632,26.312-27.421,47.463
	c12.187,21.108,42.74,20.993,54.814-0.016C262.957,366.467,247.712,340.249,259.885,319.068z"/>
<circle style="fill:#C0C0C0;" cx="324.697" cy="203.698" r="15.763"/>
<path style="fill:#AFAFB2;" d="M324.578,187.949c-11.988,0.075-19.602,13.128-13.536,23.635c4.353,7.54,13.993,10.122,21.533,5.77
	c2.528-1.459,4.483-3.52,5.822-5.889C326.273,211.541,318.601,198.525,324.578,187.949z"/>
<path style="fill:#7C6359;" d="M346.895,161.595l-66.45-3.146c-7.296-0.346-12.19,7.388-8.752,13.834
	c1.709,2.162,6.96,19.528,26.709,22.663l30.313,4.813l16.499,5.029c6.49,1.978,13.484-0.814,16.827-6.718
	c1.147-3.235,10.389-12.507,3.127-23.111l-3.515-5.132C358.296,164.923,352.832,161.877,346.895,161.595z"/>
<path style="fill:#604C42;" d="M346.255,179.412l-30.313-4.813c-9.584-1.521-17.953-7.245-22.87-15.552l-12.626-0.598
	c-7.296-0.346-12.189,7.388-8.752,13.834c1.709,2.162,6.96,19.528,26.709,22.664l30.313,4.812l16.499,5.029
	c6.49,1.978,13.484-0.814,16.827-6.718c2.849-5.545,5.325-7.933,5.77-13.028C363.418,185.297,361.635,183.842,346.255,179.412z"/>
<path style="fill:#DADADA;" d="M136.916,229.543l26.126,8.982l-48.584,122.517c-2.148,5.415-7.339,8.715-12.83,8.715
	c-9.705,0-16.418-9.822-12.822-18.889L136.916,229.543z"/>
<path style="fill:#C0C0C0;" d="M102.542,352.185l46.923-118.327l-12.549-4.314l-48.11,121.324
	c-2.809,7.084,0.656,15.104,7.74,17.913c1.67,0.662,3.39,0.976,5.082,0.976c0.489,0,0.974-0.035,1.456-0.087
	C100.59,364.358,100.207,358.07,102.542,352.185z"/>
<path d="M119.375,253.217C56.657,242.656,0,291.235,0,354.117c0,29.991,13.142,58.388,36.057,77.907
	c3.159,2.693,7.904,2.312,10.595-0.848c2.693-3.159,2.313-7.904-0.848-10.595c-19.555-16.659-30.771-40.884-30.771-66.464
	c0-52.492,46.271-93.394,98.656-86.559c-1.566,3.95-3.786,9.549-4.6,11.601c-43.881-4.019-82.029,30.739-82.029,74.959
	c0,41.506,33.767,75.273,75.271,75.273c41.506,0,75.272-33.768,75.272-75.273c0-23.271-10.694-44.99-28.891-59.236
	c1.721-4.34,2.93-7.39,4.594-11.587c22.601,16.33,36.323,42.733,36.323,70.822c0,59.942-59.295,102.037-115.727,82.543
	c-3.932-1.359-8.204,0.728-9.559,4.651c-1.355,3.924,0.727,8.203,4.651,9.558c10.72,3.703,21.935,5.58,33.336,5.58
	c56.427,0,102.332-45.907,102.332-102.333c0-34.198-17.346-66.256-45.668-85.167l5.733-14.457l57.689,84.988
	c-6.717,22.33,7.558,45.165,29.874,49.535v36.345h-30.416c-4.152,0-7.517,3.364-7.517,7.517c0,4.152,3.364,7.517,7.517,7.517h37.933
	c4.152,0,7.517-3.364,7.517-7.517v-43.862c8.238-1.614,15.553-5.826,21.061-11.745h21.626c4.92,21.137,16.54,40.347,33.204,54.61
	c65.729,56.256,168.784,9.861,168.784-77.763c0-28.355-11.967-55.706-32.835-75.043c-3.045-2.821-7.801-2.641-10.622,0.404
	c-2.821,3.045-2.641,7.8,0.404,10.622c17.806,16.501,28.019,39.834,28.019,64.016c0,48.137-39.163,87.3-87.299,87.3
	c-39.712,0-73.868-26.819-84.172-64.148h12.568c10.096,31.057,39.056,52.121,71.604,52.121c41.506,0,75.272-33.768,75.272-75.273
	c0-58.096-63.216-93.96-112.866-65.184l-9.466-8.318c24.054-15.524,53.612-17.709,78.854-7.8c3.862,1.52,8.226-0.385,9.743-4.25
	c1.517-3.864-0.386-8.226-4.25-9.744c-32.592-12.795-68.571-7.677-95.995,11.559l-25.731-22.612l9.284-22.992
	c5.199-2.45,9.353-6.766,11.586-12.083c9.16,1.41,17.944-3.017,22.418-10.919l3.823-6.754c8.682-15.332-3.896-27.816-4.552-29.44
	c-4.662-6.807-12.365-11.103-20.605-11.492l-66.45-3.146c-13.11-0.635-21.928,13.276-15.741,24.879
	c1.4,1.735,8.456,22.786,32.164,26.55l0.378,0.06l-10.178,25.22l-42.75-13.258c-3.97-1.233-8.176,0.988-9.406,4.952
	c-1.231,3.965,0.987,8.176,4.952,9.406l48.684,15.097l23.126,12.273c13.75,12.084,95.929,84.3,108.236,95.116
	c4.338,3.811,1.624,10.999-4.148,10.999c-17.917,0-90.605,0-118.924,0c1.17-3.791,1.82-8.282,1.71-12.563c26.369,0,56.722,0,80.61,0
	c3.129,0,5.93-1.938,7.034-4.865c1.104-2.927,0.279-6.233-2.071-8.297c-53.633-47.133-20.904-18.372-73.986-65.019
	c-3.907-3.432-10.035-1.95-11.949,2.875l-17.307,43.644c-3.529-2.31-7.408-4.03-11.496-5.093
	c18.3-48.366,21.148-48.325,18.645-53.556c-0.904-1.889-2.555-3.315-4.554-3.935l-87.221-27.048
	c-6.761-2.102-12.434,5.527-8.446,11.4l52.307,77.059c-3.734,2.149-7.094,4.942-9.782,7.96
	c-67.216-99.012-61.945-91.583-63.708-92.671c-1.274-0.784-0.514-0.315-20.175-7.135l17.729-44.708
	c3.556,2.644,7.777,4.111,11.741,4.476c-4.229,12.271-7.64,15.156-5.332,19.982c2.467,5.154,5.987,3.599,35.696,13.592
	c3.969,1.23,8.176-0.989,9.406-4.952c1.231-3.966-0.987-8.176-4.952-9.406l-23.389-7.253l7.565-19.077
	c9.087-9.513,8.522-24.61-1.324-33.416l-9.356-22.041c15.021,0,33.945,0,48.379,0c11.605,0,21.046-9.442,21.046-21.046
	s-9.442-21.046-21.046-21.046c-8.842,0-33.541,0-42.394,0v-9.521h3.633c4.152,0,7.517-3.364,7.517-7.517s-3.364-7.517-7.517-7.517
	h-22.299c-4.152,0-7.517,3.364-7.517,7.517s3.364,7.517,7.517,7.517h3.633v9.521c-1.935,0.395-21.041-2.976-32.618,14.515
	c-6.015,9.089-7.065,20.505-2.807,30.538l15.071,35.507c-0.029,0.741-0.041,1.27,0.025,2.355
	C151.608,171.934,123.959,241.658,119.375,253.217z M316.569,205.453l10.387,1.65l4.414,1.345c-1.062,1.506-2.644,2.672-4.568,3.199
	c-0.134-0.015-4.555,1.506-8.143-2.263C317.934,208.622,316.904,206.997,316.569,205.453z M278.26,168.747
	c-0.678-1.273,0.22-2.83,1.765-2.789l66.45,3.146c7.866,0.374,10.276,7.693,12.425,10.103c4.065,5.934-1.891,11.3-3.465,15.16
	c-1.621,2.86-4.947,4.191-8.095,3.232l-4.778-1.456h-0.001c-15.62-4.728-5.554-2.667-43.047-8.619
	C283.801,185.03,280.034,171.043,278.26,168.747z M307.069,218.978c2.796,3.201,6.517,5.697,10.75,6.993l-5.4,13.374l-11.175-5.931
	L307.069,218.978z M430.122,339.944l-45.951-40.38c39.572-18.606,85.735,10.354,85.735,54.553c0,33.217-27.024,60.24-60.239,60.24
	c-24.739,0-46.405-14.847-55.604-37.088h61.988C435.624,377.269,444.854,352.884,430.122,339.944z M267.326,373.503v-22.798
	c0-4.152-3.364-7.517-7.517-7.517c-4.152,0-7.517,3.364-7.517,7.517v22.798c-19.543-6.46-22.264-32.915-4.773-43.415
	c22.121-13.24,47.37,13.802,31.519,34.977C276.12,368.964,272.043,371.944,267.326,373.503z M324.567,334.64
	c1.841-8.002,4.823-15.749,8.834-22.943l9.273,8.15c-2.426,4.722-4.333,9.666-5.704,14.793H324.567z M352.687,334.64
	c0.518-1.513,1.093-3.005,1.732-4.471l5.088,4.471H352.687z M308.515,289.828l13.379,11.757
	c-6.112,10.194-10.423,21.426-12.685,33.055H295.38c-0.777-1.713-1.673-3.36-2.679-4.931L308.515,289.828z M212.589,249.095
	l58.967,18.286l-17.168,43.292L212.589,249.095z M102.331,414.357c-33.215,0-60.238-27.024-60.238-60.24
	c0-33.453,27.479-60.76,61.15-60.217l-21.492,54.197c-2.1,5.292-2.011,11.085,0.247,16.312c2.259,5.227,6.416,9.26,11.707,11.358
	c2.518,0.999,5.16,1.506,7.856,1.506c8.795,0,16.575-5.284,19.817-13.462l21.494-54.202
	C183.563,346.622,156.91,414.357,102.331,414.357z M141.192,238.984l11.893,4.089L107.403,358.27c-0.956,2.411-3.25,3.97-5.843,3.97
	c-0.788,0-1.565-0.149-2.312-0.446c-1.56-0.618-2.785-1.808-3.451-3.348C93.842,353.922,94.718,357.965,141.192,238.984z
	 M176.819,153.488c9.666-1.862,13.767,11.754,4.824,15.665c-5.409,2.357-11.511-1.658-11.511-7.57c0-2.776,1.457-5.512,3.998-7.055
	C174.972,154.016,175.911,153.663,176.819,153.488z M232.901,95.13c3.316,0,6.013,2.697,6.013,6.013
	c0,3.316-2.697,6.013-6.013,6.013h-28.237V95.13H232.901z M169.87,95.13h19.761v12.027h-16.465c-5.374,0-9.023,5.495-6.919,10.454
	l8.88,20.92c-3.977,0.555-7.809,2.166-11.064,4.713l-10.172-23.967C149.036,107.846,157.423,95.13,169.87,95.13z"/>
<g>
</g>
<g>
</g>
<g>
</g>
<g>
</g>
<g>
</g>
<g>
</g>
<g>
</g>
<g>
</g>
<g>
</g>
<g>
</g>
<g>
</g>
<g>
</g>
<g>
</g>
<g>
</g>
<g>
</g>
</svg>
