<svg id="Layer_1" enable-background="new 0 0 512 512" height="512" viewBox="0 0 512 512" width="512" xmlns="http://www.w3.org/2000/svg"><g><path d="m504.496 265.31v116.45c0 18.14-7.35 34.56-19.24 46.46-11.89 11.88-28.31 19.24-46.45 19.24-4.25 0-8.41-.4-12.43-1.18-30.34-5.81-53.26-32.49-53.26-64.52v-116.45c0-19.15 15.53-34.67 34.68-34.67h62.03c19.15 0 34.67 15.52 34.67 34.67z" fill="#d9f9f8"/><path d="m420.812 200.637h35.994v30h-35.994z" fill="#466175"/><path d="m504.496 265.31v116.45c0 18.14-7.35 34.56-19.24 46.46-11.89 11.88-28.31 19.24-46.45 19.24-4.25 0-8.41-.4-12.43-1.18 13.15-2.52 24.91-8.97 34.01-18.06 11.89-11.9 19.24-28.32 19.24-46.46v-116.45c0-19.15-15.52-34.67-34.67-34.67h24.87c19.15 0 34.67 15.52 34.67 34.67z" fill="#c1eaf4"/><g><path d="m235.031 147.456h75.88v299.926h-75.88z" fill="#466175"/><path d="m235.026 427.381h41.991c7.855 0 14.223-6.368 14.223-14.223v-265.702h19.671v299.926h-75.885z" fill="#2d4859"/><path d="m235.031 206.678h75.88v29.293h-75.88z" fill="#fff683"/><path d="m291.24 206.678h19.671v29.293h-19.671z" fill="#ffe45c"/></g><g><path d="m83.326 147.456h75.88v299.926h-75.88z" fill="#4fe8bc"/><path d="m83.321 427.381h41.991c7.855 0 14.223-6.368 14.223-14.223v-265.702h19.671v299.926h-75.885z" fill="#17c6a5"/><path d="m83.326 206.678h75.88v29.293h-75.88z" fill="#fff683"/><path d="m139.535 206.678h19.671v29.293h-19.671z" fill="#ffe45c"/></g><g><path d="m159.178 102.456h75.88v344.926h-75.88z" fill="#57f3ff"/><path d="m159.173 427.381h41.991c7.855 0 14.223-6.368 14.223-14.223v-310.702h19.671v344.926h-75.885z" fill="#55d7ff"/><path d="m159.178 162.455h75.88v29.293h-75.88z" fill="#fff683"/><path d="m215.387 162.455h19.671v29.293h-19.671z" fill="#ffe45c"/></g><g><path d="m7.5 102.456h75.88v344.926h-75.88z" fill="#ff6986"/><path d="m7.495 427.381h41.991c7.855 0 14.223-6.368 14.223-14.223v-310.702h19.671v344.926h-75.885z" fill="#ea3487"/><path d="m7.5 162.455h75.88v29.293h-75.88z" fill="#fff683"/><path d="m63.709 162.455h19.671v29.293h-19.671z" fill="#ffe45c"/></g></g><g><path d="m272.984 375.999c-4.142 0-7.5 3.357-7.5 7.5v30.794c0 4.143 3.358 7.5 7.5 7.5s7.5-3.357 7.5-7.5v-30.794c0-4.143-3.358-7.5-7.5-7.5z"/><path d="m438.809 375.999c-4.142 0-7.5 3.357-7.5 7.5v20.794c0 4.143 3.358 7.5 7.5 7.5s7.5-3.357 7.5-7.5v-20.794c0-4.143-3.358-7.5-7.5-7.5z"/><path d="m197.132 375.999c-4.142 0-7.5 3.357-7.5 7.5v30.794c0 4.143 3.358 7.5 7.5 7.5s7.5-3.357 7.5-7.5v-30.794c0-4.143-3.358-7.5-7.5-7.5z"/><path d="m45.426 375.999c-4.142 0-7.5 3.357-7.5 7.5v30.794c0 4.143 3.358 7.5 7.5 7.5s7.5-3.357 7.5-7.5v-30.794c0-4.143-3.358-7.5-7.5-7.5z"/><path d="m121.279 421.793c4.142 0 7.5-3.357 7.5-7.5v-30.794c0-4.143-3.358-7.5-7.5-7.5s-7.5 3.357-7.5 7.5v30.794c0 4.143 3.358 7.5 7.5 7.5z"/><path d="m504.5 297.847c4.142 0 7.5-3.357 7.5-7.5v-25.035c0-23.255-18.92-42.175-42.175-42.175h-5.519v-22.5c0-4.143-3.358-7.5-7.5-7.5h-10.497v-45.681c0-49.854-40.559-90.412-90.412-90.412-47.328 0-86.279 36.554-90.104 82.912h-23.234v-37.5c0-4.143-3.358-7.5-7.5-7.5h-75.853c-4.142 0-7.5 3.357-7.5 7.5v37.5h-60.853v-37.5c0-4.143-3.358-7.5-7.5-7.5h-75.853c-4.142 0-7.5 3.357-7.5 7.5v345c0 4.143 3.358 7.5 7.5 7.5h303.411c4.142 0 7.5-3.357 7.5-7.5v-300c0-4.143-3.358-7.5-7.5-7.5h-30.056c3.776-38.074 35.99-67.912 75.042-67.912 41.583 0 75.412 33.83 75.412 75.412v45.681h-10.497c-4.142 0-7.5 3.357-7.5 7.5v22.5h-5.52c-23.255 0-42.175 18.92-42.175 42.175v116.453c0 40.357 32.833 73.191 73.191 73.191s73.192-32.834 73.192-73.191v-56.38c0-4.143-3.358-7.5-7.5-7.5s-7.5 3.357-7.5 7.5v56.38c0 32.087-26.104 58.191-58.191 58.191s-58.191-26.104-58.191-58.191v-116.453c0-14.984 12.19-27.175 27.175-27.175h23.517v71.744c0 4.143 3.358 7.5 7.5 7.5s7.5-3.357 7.5-7.5v-71.744h23.516c14.984 0 27.175 12.19 27.175 27.175v25.035c-.001 4.142 3.357 7.5 7.499 7.5zm-352.794-69.376h-60.853v-14.292h60.853zm-75.853-44.223h-60.853v-14.292h60.853zm90.853-14.292h60.853v14.292h-60.853zm75.852 44.223h60.853v14.292h-60.853zm-75.852-104.223h60.853v45h-60.853zm-15 45v44.223h-60.853v-44.223zm-75.853-45v45h-60.853v-45zm-60.853 89.292h60.853v65.684c0 4.143 3.358 7.5 7.5 7.5s7.5-3.357 7.5-7.5v-21.461h60.853v196.485h-60.853v-140.075c0-4.143-3.358-7.5-7.5-7.5s-7.5 3.357-7.5 7.5v140.075h-60.853zm227.558 240.708v-61.866c0-4.143-3.358-7.5-7.5-7.5s-7.5 3.357-7.5 7.5v61.866h-60.853v-240.708h60.853v144.419c0 4.143 3.358 7.5 7.5 7.5s7.5-3.357 7.5-7.5v-100.196h60.853v196.485zm60.853-240.777h-60.853v-44.223h60.853zm124.901 23.958v-15h20.994v15z"/></g></svg>