<?xml version="1.0" encoding="utf-8"?>
<!-- Generator: Adobe Illustrator 25.0.0, SVG Export Plug-In . SVG Version: 6.00 Build 0)  -->
<svg version="1.1"
	 id="svg2" xmlns:cc="http://creativecommons.org/ns#" xmlns:dc="http://purl.org/dc/elements/1.1/" xmlns:rdf="http://www.w3.org/1999/02/22-rdf-syntax-ns#" xmlns:svg="http://www.w3.org/2000/svg"
	 xmlns="http://www.w3.org/2000/svg" xmlns:xlink="http://www.w3.org/1999/xlink" x="0px" y="0px" viewBox="0 0 47.5 47.5"
	 style="enable-background:new 0 0 47.5 47.5;" xml:space="preserve">
<style type="text/css">
	.st0{fill:#226699;}
	.st1{clip-path:url(#SVGID_2_);}
	.st2{fill:#DD2E44;}
	.st3{fill:#FFFFFF;}
</style>
<g id="g10" transform="matrix(1.25,0,0,-1.25,0,47.5)">
	<g id="g12" transform="translate(1,27.9409)">
		<path id="path14" class="st0" d="M0,0v-3.9h5.6L0,0z"/>
	</g>
	<g id="g16" transform="translate(5.6641,6)">
		<path id="path18" class="st0" d="M0,0h8.3v5.8L0,0z"/>
	</g>
	<g id="g20" transform="translate(24,11.8359)">
		<path id="path22" class="st0" d="M0,0v-5.8h8.3L0,0z"/>
	</g>
	<g id="g24" transform="translate(1,14)">
		<path id="path26" class="st0" d="M0,0v-3.9L5.6,0H0z"/>
	</g>
	<g id="g28" transform="translate(32.3369,32)">
		<path id="path30" class="st0" d="M0,0h-8.3v-5.8L0,0z"/>
	</g>
	<g id="g32" transform="translate(37,10.0576)">
		<path id="path34" class="st0" d="M0,0v3.9h-5.6L0,0z"/>
	</g>
	<g id="g36" transform="translate(37,24)">
		<path id="path38" class="st0" d="M0,0v3.9L-5.6,0H0z"/>
	</g>
	<g id="g40" transform="translate(14,32)">
		<path id="path42" class="st0" d="M0,0h-8.3L0-5.8V0z"/>
	</g>
	<g id="g44">
		<g>
			<defs>
				<rect id="SVGID_1_" x="-4.8" y="-4.8" width="47.5" height="47.5"/>
			</defs>
			<clipPath id="SVGID_2_">
				<use xlink:href="#SVGID_1_"  style="overflow:visible;"/>
			</clipPath>
			<g id="g46" class="st1">
				<g id="g52" transform="translate(26.1396,14)">
					<path id="path54" class="st2" d="M0,0l9.7-6.8c0.5,0.5,0.8,1.1,1,1.7L3.5,0H0z"/>
				</g>
				<g id="g56" transform="translate(14,14)">
					<path id="path58" class="st2" d="M0,0h-2.1l-9.7-6.8c0.5-0.5,1.2-0.9,1.9-1.1L0-0.9V0z"/>
				</g>
				<g id="g60" transform="translate(24,24)">
					<path id="path62" class="st2" d="M0,0h2.1l9.7,6.8c-0.5,0.5-1.2,0.9-1.9,1.1L0,0.9V0z"/>
				</g>
				<g id="g64" transform="translate(11.8589,24)">
					<path id="path66" class="st2" d="M0,0l-9.7,6.8c-0.5-0.5-0.8-1.1-1-1.7L-3.5,0H0z"/>
				</g>
				<g id="g68" transform="translate(37,16)">
					<path id="path70" class="st3" d="M0,0h-15v-10h2v5.8l8.3-5.8H-4c1.1,0,2.1,0.5,2.9,1.2L-10.9-2h3.5l7.2-5.1C-0.1-6.7,0-6.4,0-6
						v0.1L-5.6-2H0V0z"/>
				</g>
				<g id="g72" transform="translate(1,16)">
					<path id="path74" class="st3" d="M0,0v-2h5.6L0-5.9V-6c0-1.1,0.4-2.1,1.1-2.8L10.9-2H13v-0.9L3.1-9.9C3.4-10,3.7-10,4-10h0.7
						L13-4.2V-10h2V0H0z"/>
				</g>
				<g id="g76" transform="translate(37,28)">
					<path id="path78" class="st3" d="M0,0c0,1.1-0.4,2.1-1.1,2.8L-10.9-4H-13v0.9l9.9,6.9C-3.4,4-3.7,4-4,4h-0.7L-13-1.8V4h-2V-6H0
						v2h-5.6L0,0L0,0z"/>
				</g>
				<g id="g80" transform="translate(14,32)">
					<path id="path82" class="st3" d="M0,0v-5.8L-8.3,0H-9c-1.1,0-2.1-0.5-2.9-1.2L-2.1-8h-3.5l-7.2,5.1C-12.9-3.3-13-3.6-13-4v-0.1
						L-7.4-8H-13v-2H2V0H0z"/>
				</g>
				<g id="g84" transform="translate(22,22)">
					<path id="path86" class="st2" d="M0,0v10h-6V0h-15v-3v-3h15v-10h6v10h15v3v3H0z"/>
				</g>
			</g>
		</g>
	</g>
</g>
</svg>
