<?xml version="1.0" encoding="iso-8859-1"?>
<!-- Generator: Adobe Illustrator 19.0.0, SVG Export Plug-In . SVG Version: 6.00 Build 0)  -->
<svg version="1.1" id="Capa_1" xmlns="http://www.w3.org/2000/svg" xmlns:xlink="http://www.w3.org/1999/xlink" x="0px" y="0px"
	 viewBox="0 0 512.002 512.002" style="enable-background:new 0 0 512.002 512.002;" xml:space="preserve">
<path d="M129.653,449.923c-11.854,0-21.499,9.644-21.499,21.498c0,11.854,9.645,21.499,21.499,21.499s21.498-9.645,21.498-21.499
	S141.507,449.923,129.653,449.923z M129.653,477.92c-3.583,0-6.499-2.916-6.499-6.499s2.916-6.498,6.499-6.498
	s6.498,2.915,6.498,6.498C136.151,475.004,133.236,477.92,129.653,477.92z"/>
<path d="M382.349,449.923c-11.854,0-21.499,9.644-21.499,21.498c0,11.854,9.644,21.499,21.499,21.499s21.499-9.645,21.499-21.499
	S394.203,449.923,382.349,449.923z M382.349,477.92c-3.583,0-6.499-2.916-6.499-6.499s2.915-6.498,6.499-6.498
	s6.499,2.915,6.499,6.498C388.848,475.004,385.932,477.92,382.349,477.92z"/>
<path style="fill:#FFB123;" d="M266.028,78.378l-30.292-9.655l18.979-59.544c0.455-1.428,1.982-2.217,3.41-1.762l25.12,8.007
	c1.428,0.455,2.217,1.982,1.762,3.41L266.028,78.378z"/>
<path style="fill:#FF901D;" d="M283.245,15.425l-12.083-3.851L250.658,73.48l15.369,4.899l18.979-59.544
	C285.462,17.407,284.673,15.88,283.245,15.425z"/>
<path style="fill:#E1EFFB;" d="M344.227,44.341l-128.664,61.457l-45.138,141.617c-1.191,3.736,0.872,7.73,4.608,8.92l184.505,58.808
	c3.736,1.191,7.73-0.872,8.92-4.608l45.138-141.618L344.227,44.341z"/>
<path style="fill:#CCDFED;" d="M344.227,44.341l-35.801,17.101l59.847,107.476l-43.114,135.268l34.38,10.958
	c3.736,1.191,7.73-0.872,8.92-4.608l45.138-141.618L344.227,44.341z"/>
<path style="fill:#FF4C4C;" d="M439.156,209.144c-3.338-1.064-6.293-3.352-8.133-6.654L343.766,45.788l-161.843,77.304
	c-7.113,3.398-15.634,0.385-19.03-6.727c-3.398-7.112-0.386-15.633,6.727-19.03l173.941-83.083c6.8-3.249,14.955-0.649,18.621,5.935
	l93.781,168.415c3.835,6.887,1.361,15.578-5.526,19.413C446.852,210.011,442.779,210.299,439.156,209.144z"/>
<path style="fill:#2D5871;" d="M332.421,169.227l-50.835-16.203c-2.385-0.76-4.935,0.557-5.695,2.942l-38.342,120.295l59.473,18.956
	l38.342-120.295C336.124,172.537,334.807,169.987,332.421,169.227z"/>
<path style="fill:#1D4859;" d="M332.421,169.227l-24.63-7.85l-39.819,124.582l29.049,9.259l38.342-120.295
	C336.124,172.537,334.807,169.987,332.421,169.227z"/>
<path style="fill:#FFB123;" d="M122.034,237.699l24.102,162.86h272.979c1.657,0,3.127-1.061,3.649-2.633l51.554-155.169
	c0.827-2.489-1.026-5.058-3.649-5.058H122.034z"/>
<path style="fill:#FF901D;" d="M474.491,241.936c0.023-0.22,0.028-0.438,0.014-0.653c-0.003-0.039-0.008-0.076-0.012-0.114
	c-0.021-0.21-0.056-0.416-0.109-0.616c-0.004-0.015-0.006-0.03-0.01-0.044c-0.06-0.211-0.141-0.413-0.234-0.61
	c-0.016-0.034-0.032-0.067-0.049-0.101c-0.099-0.194-0.212-0.379-0.342-0.553c-0.011-0.015-0.024-0.029-0.035-0.043
	c-0.133-0.173-0.28-0.334-0.44-0.483c-0.01-0.01-0.02-0.02-0.03-0.03c-0.166-0.15-0.346-0.284-0.538-0.404
	c-0.024-0.015-0.048-0.03-0.073-0.044c-0.569-0.339-1.234-0.542-1.962-0.542h-43.555c2.623,0,4.476,2.569,3.649,5.058
	l-46.643,140.386c-1.12,3.37-4.271,5.643-7.822,5.643H146.135l-22.359-151.087h-1.742l24.102,162.86h272.979
	c1.657,0,3.127-1.061,3.649-2.633l51.554-155.169c0.076-0.229,0.122-0.459,0.155-0.687
	C474.479,242.025,474.486,241.981,474.491,241.936z"/>
<path style="fill:#2D5872;" d="M461.859,465.294H153.004c-7.686,0-14.207-5.645-15.308-13.252l-8.916-63.598l-24.095-162.811
	l-6.255-41.846L47.039,173.24c-8.368-1.717-13.759-9.893-12.042-18.261s9.893-13.76,18.261-12.042l58.602,12.028
	c8.354,1.714,14.815,8.534,16.075,16.969l7.346,49.149l24.105,162.882l7.005,50.395h295.466c8.542,0,15.467,6.925,15.467,15.467
	S470.401,465.294,461.859,465.294z"/>
<circle style="fill:#FF4C4C;" cx="161.881" cy="465.299" r="39.42"/>
<path style="fill:#FFFFFF;" d="M161.88,478.893c-7.499,0-13.599-6.101-13.599-13.599s6.101-13.599,13.599-13.599
	c7.499,0,13.599,6.1,13.599,13.599S169.379,478.893,161.88,478.893z"/>
<circle style="fill:#FF4C4C;" cx="407.361" cy="465.299" r="39.42"/>
<path style="fill:#FFFFFF;" d="M407.36,478.893c-7.498,0-13.599-6.101-13.599-13.599s6.101-13.599,13.599-13.599
	c7.499,0,13.599,6.1,13.599,13.599S414.859,478.893,407.36,478.893z"/>
<path d="M195.024,374.54c4.024,0,7.286-3.262,7.286-7.286v-39.43c0-4.024-3.262-7.286-7.286-7.286s-7.286,3.262-7.286,7.286v39.43
	C187.739,371.278,191.001,374.54,195.024,374.54z"/>
<path d="M195.024,289.843c4.024,0,7.286-3.262,7.286-7.286v-13.662c0-4.024-3.262-7.286-7.286-7.286s-7.286,3.262-7.286,7.286
	v13.662C187.739,286.581,191.001,289.843,195.024,289.843z"/>
<path d="M254.72,374.54c4.024,0,7.286-3.262,7.286-7.286v-98.359c0-4.024-3.262-7.286-7.286-7.286c-4.024,0-7.286,3.262-7.286,7.286
	v98.359C247.434,371.278,250.696,374.54,254.72,374.54z"/>
<path d="M314.415,374.54c4.024,0,7.286-3.262,7.286-7.286v-98.359c0-4.024-3.262-7.286-7.286-7.286s-7.286,3.262-7.286,7.286v98.359
	C307.129,371.278,310.391,374.54,314.415,374.54z"/>
<path d="M374.111,374.54c4.024,0,7.286-3.262,7.286-7.286v-98.359c0-4.024-3.262-7.286-7.286-7.286s-7.286,3.262-7.286,7.286v98.359
	C366.825,371.278,370.087,374.54,374.111,374.54z"/>
<path d="M461.859,427.074h-27.705c-7.591-5.338-16.829-8.484-26.794-8.484c-9.964,0-19.202,3.147-26.794,8.484H188.674
	c-5.024-3.533-10.769-6.103-16.971-7.436l-1.639-11.793h249.051c4.804,0,9.049-3.063,10.563-7.622l51.554-155.169
	c1.125-3.384,0.551-7.131-1.536-10.023s-5.462-4.619-9.028-4.619h-69.025l13.32-41.79l9.696,17.412
	c2.679,4.81,7.042,8.38,12.285,10.051c2.126,0.677,4.332,1.012,6.532,1.012c3.645,0,7.276-0.918,10.505-2.716
	c5.031-2.801,8.67-7.394,10.247-12.932c1.577-5.539,0.902-11.36-1.899-16.391l-19.766-35.496c-1.958-3.514-6.394-4.778-9.91-2.821
	c-3.515,1.958-4.778,6.395-2.821,9.91l19.766,35.496c0.907,1.63,1.126,3.516,0.615,5.311c-0.511,1.795-1.691,3.283-3.32,4.191
	c-1.703,0.948-3.665,1.145-5.524,0.552c-1.698-0.541-3.112-1.698-3.98-3.257l-87.258-156.7c-1.871-3.361-6.034-4.686-9.506-3.03
	l-161.843,77.305c-1.684,0.805-3.579,0.905-5.34,0.283c-1.759-0.622-3.171-1.892-3.975-3.576s-0.905-3.58-0.283-5.34
	c0.622-1.759,1.892-3.171,3.576-3.975l67.233-32.114l0,0l1.141-0.545l105.567-50.425c3.321-1.588,7.325-0.31,9.115,2.906
	l51.986,93.358c1.959,3.515,6.395,4.778,9.91,2.821c3.515-1.958,4.778-6.395,2.821-9.91l-51.986-93.358
	c-5.525-9.923-17.881-13.862-28.127-8.965l-52.151,24.91l3.679-11.542c1.672-5.252-1.239-10.887-6.492-12.563l-25.119-8.006
	c-2.546-0.812-5.255-0.583-7.627,0.643c-2.373,1.226-4.127,3.303-4.938,5.847l-16.906,53.04l-64.389,30.755
	c-5.196,2.482-9.115,6.839-11.034,12.268c-1.919,5.429-1.609,11.281,0.873,16.476c2.482,5.196,6.838,9.115,12.267,11.035
	c5.431,1.919,11.282,1.61,16.478-0.873l17.983-8.589l-34.849,109.335h-24.167l-1.54-10.408l-7.346-49.148
	c-1.711-11.447-10.478-20.702-21.816-23.028l-58.602-12.028c-5.952-1.221-12.026-0.052-17.101,3.293
	c-5.074,3.346-8.541,8.467-9.762,14.42c-1.222,5.953-0.053,12.027,3.293,17.1c3.346,5.074,8.467,8.541,14.421,9.762l46.403,9.524
	l5.501,36.8l24.086,162.756l6.171,44.019c-7.784,8.347-12.56,19.533-12.56,31.82c0,25.753,20.951,46.705,46.705,46.705
	c23.275,0,42.624-17.114,46.133-39.419h153.214c3.509,22.302,22.857,39.416,46.132,39.416s42.624-17.114,46.133-39.419h8.366
	c12.546,0,22.753-10.207,22.753-22.753S474.405,427.074,461.859,427.074z M260.268,15.748l16.408,5.23l-6.447,20.227l-21.321,10.184
	L260.268,15.748z M221.086,112.461L340.73,55.313l64.506,115.843l-18.887,59.258h-61.024l16.981-53.278
	c1.979-6.209-1.461-12.871-7.671-14.851l-50.834-16.202c-6.209-1.981-12.871,1.461-14.851,7.671l-24.434,76.66h-61.025
	L221.086,112.461z M310.03,230.413h-50.22l22.187-69.611l45.59,14.53L310.03,230.413z M173.521,244.984h76.319h65.515h76.319h74.227
	l-49.268,148.288H168.038l-1.433-10.311c-0.003-0.021-0.006-0.043-0.009-0.064l-20.41-137.913L173.521,244.984L173.521,244.984z
	 M111.892,224.556l-6.255-41.846c-0.452-3.024-2.745-5.445-5.741-6.06l-51.391-10.548c-2.141-0.44-3.982-1.686-5.185-3.51
	c-1.203-1.824-1.623-4.008-1.184-6.149c0.44-2.141,1.686-3.982,3.511-5.185c1.353-0.892,2.902-1.354,4.487-1.354
	c0.552,0,1.109,0.056,1.662,0.17l58.603,12.029c5.371,1.102,9.524,5.486,10.334,10.908l7.344,49.138l24.096,162.819l1.61,11.584
	l0.696,5.01c0,0.001,0,0.002,0.001,0.003l2.403,17.292c-0.639,0.068-1.275,0.153-1.909,0.248c-0.261,0.039-0.519,0.086-0.778,0.129
	c-0.519,0.086-1.037,0.174-1.552,0.278c-0.295,0.059-0.585,0.13-0.878,0.195c-0.431,0.095-0.862,0.191-1.29,0.298
	c-0.287,0.072-0.57,0.152-0.855,0.23c-0.437,0.119-0.873,0.24-1.306,0.372c-0.256,0.078-0.509,0.16-0.763,0.242
	c-0.47,0.151-0.937,0.309-1.402,0.475c-0.206,0.074-0.411,0.149-0.616,0.226c-0.529,0.198-1.054,0.405-1.575,0.622
	c-0.133,0.055-0.266,0.11-0.399,0.167c-0.623,0.266-1.24,0.546-1.852,0.839c-0.028,0.013-0.056,0.026-0.084,0.039
	c-0.191,0.092-0.385,0.176-0.575,0.271l-5.062-36.108L111.892,224.556z M161.881,497.427c-17.718,0-32.133-14.415-32.133-32.133
	c0-13.26,8.074-24.668,19.563-29.57c0.087-0.037,0.174-0.071,0.261-0.107c0.368-0.153,0.739-0.3,1.113-0.44
	c0.149-0.056,0.3-0.108,0.45-0.161c0.315-0.112,0.632-0.22,0.952-0.323c0.193-0.062,0.387-0.121,0.582-0.179
	c0.282-0.085,0.566-0.165,0.852-0.242c0.222-0.06,0.444-0.117,0.667-0.172c0.266-0.066,0.534-0.127,0.803-0.186
	c0.238-0.052,0.476-0.103,0.715-0.15c0.263-0.051,0.528-0.097,0.793-0.142c0.243-0.041,0.485-0.083,0.73-0.119
	c0.276-0.04,0.555-0.073,0.834-0.106c0.233-0.028,0.465-0.058,0.699-0.081c0.321-0.031,0.645-0.052,0.969-0.074
	c0.194-0.013,0.386-0.031,0.581-0.04c0.521-0.025,1.044-0.04,1.571-0.04c0.454,0,0.904,0.016,1.354,0.034
	c0.442,0.021,0.902,0.051,1.39,0.092c0.006,0,0.012,0,0.018,0c6.58,0.563,12.6,3.113,17.453,7.053
	c0.195,0.158,0.386,0.321,0.577,0.483c0.25,0.213,0.501,0.425,0.744,0.645c0.106,0.095,0.207,0.195,0.311,0.291
	c4.022,3.736,7.089,8.485,8.788,13.84c0.024,0.075,0.049,0.149,0.072,0.224c0.121,0.392,0.231,0.789,0.338,1.187
	c0.043,0.164,0.087,0.328,0.128,0.492c0.087,0.347,0.167,0.696,0.242,1.047c0.048,0.227,0.093,0.455,0.137,0.683
	c0.059,0.309,0.116,0.619,0.167,0.931c0.046,0.285,0.084,0.572,0.122,0.859c0.036,0.269,0.074,0.538,0.103,0.81
	c0.038,0.358,0.065,0.718,0.091,1.078c0.016,0.212,0.037,0.423,0.048,0.636c0.031,0.58,0.049,1.162,0.049,1.748
	C194.014,483.013,179.599,497.427,161.881,497.427z M361.219,458.008H208.022c-0.908-5.816-2.897-11.353-5.846-16.363h164.889
	C364.116,446.655,362.127,452.192,361.219,458.008z M407.36,497.427c-17.718,0-32.133-14.415-32.133-32.133
	c0-0.585,0.018-1.168,0.049-1.748c0.012-0.213,0.033-0.424,0.049-0.636c0.026-0.36,0.053-0.72,0.091-1.078
	c0.029-0.271,0.067-0.54,0.103-0.81c0.038-0.287,0.076-0.574,0.122-0.859c0.05-0.312,0.107-0.622,0.167-0.931
	c0.044-0.228,0.088-0.456,0.137-0.683c0.075-0.351,0.156-0.7,0.242-1.047c0.041-0.165,0.084-0.328,0.128-0.492
	c0.106-0.398,0.217-0.795,0.338-1.187c0.023-0.075,0.048-0.149,0.072-0.224c1.698-5.355,4.766-10.103,8.788-13.84
	c0.104-0.097,0.205-0.196,0.311-0.291c0.243-0.22,0.494-0.432,0.744-0.645c0.191-0.162,0.382-0.325,0.577-0.483
	c5.526-4.485,12.56-7.179,20.215-7.179c7.657,0,14.693,2.696,20.219,7.183c0.192,0.156,0.379,0.315,0.567,0.474
	c0.253,0.215,0.507,0.43,0.754,0.653c0.1,0.09,0.195,0.184,0.294,0.276c4.03,3.739,7.103,8.494,8.803,13.856
	c0.023,0.073,0.048,0.146,0.07,0.219c0.122,0.393,0.232,0.791,0.339,1.191c0.043,0.162,0.086,0.325,0.127,0.488
	c0.087,0.347,0.167,0.697,0.243,1.049c0.048,0.227,0.093,0.455,0.137,0.683c0.059,0.309,0.116,0.619,0.167,0.931
	c0.046,0.285,0.084,0.572,0.122,0.859c0.036,0.269,0.074,0.538,0.103,0.81c0.038,0.358,0.065,0.718,0.091,1.078
	c0.016,0.212,0.037,0.423,0.048,0.636c0.031,0.58,0.049,1.162,0.049,1.748C439.494,483.013,425.079,497.427,407.36,497.427z
	 M461.859,458.008h-8.357c-0.908-5.816-2.897-11.353-5.846-16.363h14.203c4.511,0,8.181,3.67,8.181,8.181
	C470.041,454.339,466.371,458.008,461.859,458.008z"/>
<g>
</g>
<g>
</g>
<g>
</g>
<g>
</g>
<g>
</g>
<g>
</g>
<g>
</g>
<g>
</g>
<g>
</g>
<g>
</g>
<g>
</g>
<g>
</g>
<g>
</g>
<g>
</g>
<g>
</g>
</svg>
