<svg id="Capa_1" enable-background="new 0 0 512 512" height="512" viewBox="0 0 512 512" width="512" xmlns="http://www.w3.org/2000/svg"><g><g><path d="m283.227 176.855-.716-3.713c-1.604-8.32-2.411-16.773-2.411-25.246v-22.983c0-5.676-4.601-10.277-10.277-10.277h-27.647c-5.676 0-10.277 4.601-10.277 10.277v22.983c0 8.473-.807 16.926-2.411 25.246l-.716 3.713z" fill="#ecf4ff"/></g><g><path d="m282.512 173.142c-1.604-8.32-2.411-16.773-2.411-25.246v-22.983c0-5.676-4.601-10.277-10.277-10.277h-19.357c5.676 0 10.277 4.601 10.277 10.277v22.983c0 8.473.807 16.926 2.411 25.246l.716 3.713h19.357z" fill="#cbe2ff"/></g><g><path d="m405.018 196.206h-84.546v-46.154c0-6.798 5.511-12.308 12.308-12.308h37.874c7.7 0 14.583 4.799 17.246 12.023z" fill="#ffe07d"/></g><g><path d="m106.982 196.206h84.546v-46.154c0-6.798-5.511-12.308-12.308-12.308h-37.874c-7.7 0-14.583 4.799-17.246 12.023z" fill="#ffe07d"/></g><g><path d="m387.9 149.767c-2.663-7.224-9.547-12.023-17.246-12.023h-23.315c7.7 0 14.583 4.799 17.246 12.023l17.117 46.439h23.315z" fill="#ffd064"/></g><g><path d="m179.22 137.744h-23.315c6.798 0 12.308 5.511 12.308 12.308v46.154h23.315v-46.154c0-6.797-5.51-12.308-12.308-12.308z" fill="#ffd064"/></g><g><path d="m403.821 169.015h-295.642c-36.267 0-67.587 25.379-75.105 60.859l-20.215 95.408c-7.341 34.648-7.27 70.457.21 105.076 7.208 33.359 42.615 52.289 74.359 39.755 34.976-13.811 65.788-36.428 89.447-65.657 14-17.296 35.062-27.345 57.314-27.345h43.622c22.252 0 43.314 10.049 57.314 27.345l.679.839c23.213 28.679 53.445 50.87 87.763 64.421l1.004.397c31.743 12.534 67.151-6.396 74.359-39.755 7.48-34.619 7.551-70.428.21-105.076l-20.215-95.408c-7.517-35.479-38.837-60.859-75.104-60.859z" fill="#9dc6fb"/></g><g><g><path d="m499.141 325.283-20.215-95.408c-7.517-35.48-38.838-60.859-75.105-60.859h-49.634c36.267 0 67.587 25.379 75.105 60.859l20.215 95.408c7.341 34.648 7.27 70.457-.21 105.076-3.729 17.257-15.012 30.635-29.423 37.811 1.561.659 3.12 1.32 4.698 1.943 31.743 12.534 67.151-6.396 74.359-39.755 7.48-34.618 7.551-70.427.21-105.075z" fill="#80b4fb"/></g></g><g><circle cx="374.795" cy="285.663" fill="#ffe07d" r="78.42"/></g><g><circle cx="374.795" cy="247.613" fill="#ffd064" r="21.038"/></g><g><circle cx="374.795" cy="323.712" fill="#9dc6fb" r="21.038"/></g><g><circle cx="412.844" cy="285.663" fill="#b3e59f" r="21.038"/></g><g><circle cx="336.745" cy="285.663" fill="#e28086" r="21.038"/></g><g><path d="m380.928 227.49c.591 1.941.914 3.999.914 6.133 0 11.619-9.419 21.038-21.038 21.038-2.134 0-4.192-.323-6.133-.914 2.626 8.626 10.639 14.904 20.124 14.904 11.619 0 21.038-9.419 21.038-21.038-.001-9.484-6.279-17.497-14.905-20.123z" fill="#e7a561"/></g><g><path d="m380.928 303.589c.591 1.941.914 3.999.914 6.133 0 11.619-9.419 21.038-21.038 21.038-2.134 0-4.192-.323-6.133-.914 2.626 8.626 10.639 14.904 20.124 14.904 11.619 0 21.038-9.419 21.038-21.038-.001-9.484-6.279-17.498-14.905-20.123z" fill="#80b4fb"/></g><g><path d="m418.977 265.539c.591 1.941.914 3.999.914 6.133 0 11.619-9.419 21.038-21.038 21.038-2.134 0-4.192-.323-6.133-.914 2.626 8.626 10.639 14.904 20.123 14.904 11.619 0 21.038-9.419 21.038-21.038.001-9.484-6.278-17.497-14.904-20.123z" fill="#95d6a4"/></g><g><path d="m342.878 265.539c.591 1.941.914 3.999.914 6.133 0 11.619-9.419 21.038-21.038 21.038-2.134 0-4.192-.323-6.133-.914 2.626 8.626 10.639 14.904 20.124 14.904 11.619 0 21.038-9.419 21.038-21.038 0-9.484-6.279-17.497-14.905-20.123z" fill="#dd636e"/></g><g><circle cx="137.205" cy="285.663" fill="#ffe07d" r="78.42"/></g><g><path d="m421.711 222.819c9.783 13.083 15.577 29.323 15.577 46.916 0 43.31-35.11 78.42-78.42 78.42-17.593 0-33.833-5.794-46.916-15.577 14.301 19.125 37.126 31.504 62.843 31.504 43.31 0 78.42-35.11 78.42-78.42 0-25.716-12.379-48.542-31.504-62.843z" fill="#ffd064"/></g><g><path d="m184.122 222.819c9.783 13.083 15.577 29.323 15.577 46.917 0 43.31-35.11 78.42-78.42 78.42-17.593 0-33.833-5.794-46.917-15.577 14.301 19.125 37.126 31.504 62.843 31.504 43.31 0 78.42-35.11 78.42-78.42 0-25.717-12.379-48.543-31.503-62.844z" fill="#ffd064"/></g><g><path d="m177.329 269.501h-20.73c-1.785 0-3.232-1.447-3.232-3.232v-20.73c0-3.57-2.894-6.465-6.465-6.465h-19.394c-3.57 0-6.465 2.894-6.465 6.465v20.73c0 1.785-1.447 3.232-3.232 3.232h-20.73c-3.57 0-6.465 2.894-6.465 6.465v19.394c0 3.57 2.894 6.465 6.465 6.465h20.73c1.785 0 3.232 1.447 3.232 3.232v20.73c0 3.57 2.894 6.465 6.465 6.465h19.394c3.57 0 6.465-2.894 6.465-6.465v-20.73c0-1.785 1.447-3.232 3.232-3.232h20.73c3.57 0 6.465-2.894 6.465-6.465v-19.394c0-3.571-2.894-6.465-6.465-6.465z" fill="#4a80aa"/></g><g><g><path d="m177.329 269.501h-6.287v13.107c0 3.57-2.894 6.465-6.465 6.465h-20.73c-1.785 0-3.232 1.447-3.232 3.232v20.73c0 3.57-2.894 6.465-6.465 6.465h-13.107v6.287c0 3.57 2.894 6.465 6.465 6.465h19.394c3.57 0 6.465-2.894 6.465-6.465v-20.73c0-1.785 1.447-3.232 3.232-3.232h20.73c3.57 0 6.465-2.894 6.465-6.465v-19.394c0-3.571-2.894-6.465-6.465-6.465z" fill="#407093"/></g></g><g><path d="m286.914 370.255c-3.013-.34-6.076-.511-9.102-.511h-43.622c-24.592 0-47.569 10.963-63.041 30.078-22.814 28.185-52.699 50.122-86.426 63.439-13.114 5.177-27.767 4.335-40.2-2.312-12.434-6.647-21.274-18.364-24.252-32.146-7.308-33.823-7.377-68.138-.204-101.992l20.216-95.409c6.755-31.879 35.31-55.018 67.897-55.018h295.642c21.456 0 41.366 9.688 54.623 26.579 2.512 3.2 7.141 3.759 10.345 1.246 3.2-2.512 3.759-7.143 1.246-10.345-16.069-20.474-40.203-32.216-66.214-32.216h-3.689l-5.318-14.428c-3.714-10.074-13.422-16.843-24.159-16.843h-37.876c-10.849 0-19.676 8.827-19.676 19.676v11.595h-24.878c-.501-4.568-.757-9.176-.757-13.751v-22.983c0-9.729-7.916-17.644-17.645-17.644h-6.455v-8.677c0-7.709 6.271-13.981 13.98-13.981h20.467c15.834 0 28.716-12.882 28.716-28.716v-17.884c0-4.07-3.298-7.368-7.368-7.368s-7.368 3.298-7.368 7.368v17.881c0 7.709-6.271 13.981-13.981 13.981h-20.467c-15.834 0-28.716 12.882-28.716 28.716v8.677h-6.456c-9.73 0-17.645 7.916-17.645 17.644v22.983c0 4.579-.256 9.187-.757 13.751h-24.878v-11.595c0-10.849-8.827-19.676-19.676-19.676h-37.874c-10.737 0-20.445 6.769-24.159 16.843l-5.318 14.428h-3.689c-19.224 0-38.037 6.666-52.972 18.768-14.936 12.103-25.356 29.125-29.34 47.931l-20.217 95.412c-7.607 35.901-7.533 72.29.216 108.159 3.894 18.019 15.45 33.338 31.707 42.029 9.212 4.925 19.352 7.413 29.533 7.412 7.786 0 15.597-1.455 23.026-4.39 36.085-14.248 68.06-37.719 92.468-67.874 12.661-15.642 31.463-24.613 51.587-24.613h43.622c2.478 0 4.985.141 7.452.419 4.031.463 7.691-2.452 8.147-6.497.457-4.043-2.452-7.691-6.495-8.146zm40.925-220.203c0-2.725 2.216-4.941 4.941-4.941h37.874c4.592 0 8.745 2.895 10.333 7.204l3.44 9.332h-56.588zm-88.572-2.156v-22.983c0-1.604 1.305-2.909 2.91-2.909h27.646c1.604 0 2.91 1.305 2.91 2.909v22.983c0 4.575.244 9.177.693 13.751h-34.851c.448-4.572.692-9.174.692-13.751zm-108.254 4.42c1.588-4.308 5.741-7.204 10.333-7.204h37.874c2.724 0 4.941 2.216 4.941 4.941v11.595h-56.588z"/><path d="m506.348 323.756-20.215-95.409c-.843-3.981-4.756-6.53-8.735-5.68-3.98.843-6.524 4.754-5.68 8.735l20.215 95.409c7.173 33.852 7.105 68.167-.204 101.992-2.978 13.782-11.817 25.499-24.252 32.146-12.747 6.834-27.868 7.5-41.203 1.916-33.07-13.058-62.374-34.568-84.742-62.203-4.816-6.087-10.462-11.479-16.796-15.966-3.317-2.355-7.918-1.571-10.272 1.747s-1.572 7.918 1.747 10.272c5.238 3.707 9.895 8.178 13.867 13.217 23.965 29.606 55.357 52.65 90.787 66.639 17.33 7.169 36.967 6.262 53.561-2.627 16.257-8.691 27.815-24.011 31.708-42.029 7.749-35.871 7.821-72.26.214-108.159z"/><path d="m374.795 371.451c47.303 0 85.788-38.485 85.788-85.789 0-47.303-38.485-85.788-85.788-85.788s-85.788 38.485-85.788 85.788c0 47.304 38.485 85.789 85.788 85.789zm0-156.841c39.178 0 71.052 31.874 71.052 71.052s-31.874 71.053-71.052 71.053-71.052-31.875-71.052-71.053 31.873-71.052 71.052-71.052z"/><path d="m349.348 311.109c-1.89 3.801-2.959 8.079-2.959 12.603 0 15.662 12.743 28.406 28.406 28.406 15.662 0 28.406-12.743 28.406-28.406 0-4.525-1.069-8.802-2.959-12.603 3.8 1.89 8.078 2.959 12.602 2.959 15.662 0 28.406-12.743 28.406-28.406 0-15.662-12.743-28.406-28.406-28.406-4.524 0-8.801 1.068-12.602 2.958 1.89-3.8 2.958-8.078 2.958-12.602 0-15.662-12.743-28.406-28.406-28.406-15.662 0-28.406 12.743-28.406 28.406 0 4.524 1.068 8.801 2.958 12.602-3.8-1.89-8.078-2.958-12.602-2.958-15.662 0-28.406 12.743-28.406 28.406 0 15.662 12.743 28.406 28.406 28.406 4.526 0 8.804-1.069 12.604-2.959zm25.447 26.273c-7.538 0-13.67-6.132-13.67-13.67s6.132-13.67 13.67-13.67 13.67 6.132 13.67 13.67-6.133 13.67-13.67 13.67zm-12.603-39.117c1.89-3.801 2.959-8.078 2.959-12.603 0-4.524-1.068-8.801-2.958-12.602 3.8 1.89 8.078 2.958 12.602 2.958s8.801-1.068 12.602-2.958c-1.89 3.8-2.958 8.078-2.958 12.602 0 4.525 1.069 8.802 2.959 12.603-3.8-1.89-8.078-2.959-12.602-2.959-4.526.001-8.803 1.069-12.604 2.959zm50.652-26.273c7.538 0 13.67 6.132 13.67 13.67s-6.132 13.67-13.67 13.67-13.67-6.132-13.67-13.67 6.132-13.67 13.67-13.67zm-38.049-38.049c7.538 0 13.67 6.132 13.67 13.67s-6.132 13.67-13.67 13.67-13.67-6.132-13.67-13.67c0-7.537 6.132-13.67 13.67-13.67zm-51.719 51.719c0-7.538 6.132-13.67 13.67-13.67s13.67 6.132 13.67 13.67-6.132 13.67-13.67 13.67-13.67-6.132-13.67-13.67z"/><path d="m73.236 331.625c-3.067 2.674-3.385 7.329-.711 10.395 16.309 18.704 39.884 29.431 64.68 29.431 47.303 0 85.788-38.485 85.788-85.789 0-47.303-38.485-85.788-85.788-85.788s-85.788 38.485-85.788 85.788c0 7.811 1.05 15.553 3.123 23.012 1.089 3.921 5.148 6.215 9.071 5.127 3.92-1.09 6.216-5.151 5.126-9.072-1.715-6.174-2.585-12.59-2.585-19.067 0-39.178 31.874-71.052 71.052-71.052s71.052 31.874 71.052 71.052-31.874 71.053-71.052 71.053c-20.537 0-40.064-8.886-53.574-24.379-2.673-3.068-7.328-3.387-10.394-.711z"/><path d="m146.902 231.706h-19.394c-7.627 0-13.833 6.205-13.833 13.832v16.595h-16.593c-7.627 0-13.832 6.205-13.832 13.832v19.394c0 7.628 6.205 13.833 13.832 13.833h16.594v16.594c0 7.628 6.206 13.833 13.833 13.833h19.394c7.627 0 13.832-6.205 13.832-13.833v-16.594h16.594c7.627 0 13.832-6.205 13.832-13.833v-19.394c0-7.627-6.205-13.832-13.832-13.832h-16.594v-16.595c0-7.627-6.205-13.832-13.833-13.832zm29.524 45.163v17.588h-19.826c-5.845 0-10.6 4.756-10.6 10.6v19.827h-17.588v-19.827c0-5.844-4.755-10.6-10.6-10.6h-19.827v-17.588h19.827c5.845 0 10.6-4.756 10.6-10.601v-19.826h17.588v19.826c0 5.845 4.756 10.601 10.6 10.601z"/><path d="m242.344 214.085c0-6.415-5.201-11.616-11.616-11.616s-11.616 5.201-11.616 11.616 5.201 11.616 11.616 11.616 11.616-5.201 11.616-11.616z"/><path d="m281.272 202.469c-6.415 0-11.616 5.201-11.616 11.616s5.201 11.616 11.616 11.616 11.616-5.201 11.616-11.616-5.2-11.616-11.616-11.616z"/></g></g></svg>