<svg height="512pt" viewBox="0 0 512 512" width="512pt" xmlns="http://www.w3.org/2000/svg"><path d="m328.140625 504.484375h-272.53125v-248.484375c0-26.5625 21.53125-48.09375 48.09375-48.09375h176.34375c26.5625 0 48.09375 21.53125 48.09375 48.09375zm0 0" fill="#9689d0"/><path d="m87.671875 400.28125v-144.28125c0-26.5625 21.53125-48.09375 48.09375-48.09375h-32.0625c-26.5625 0-48.09375 21.53125-48.09375 48.09375v248.484375h272.53125v-104.203125zm0 0" fill="#7c6cc4"/><path d="m87.671875 504.484375h-80.15625v-144.28125c0-22.132813 17.941406-40.078125 40.078125-40.078125 22.132812 0 40.078125 17.945312 40.078125 40.078125zm0 0" fill="#9689d0"/><path d="m59.617188 321.960938c-3.796876-1.191407-7.835938-1.835938-12.023438-1.835938-22.136719 0-40.078125 17.945312-40.078125 40.078125v144.28125h24.046875v-144.28125c0-17.945313 11.796875-33.132813 28.054688-38.242187zm0 0" fill="#7c6cc4"/><path d="m376.234375 504.484375h-80.15625v-144.28125c0-22.132813 17.945313-40.078125 40.078125-40.078125s40.078125 17.945312 40.078125 40.078125zm0 0" fill="#9689d0"/><path d="m348.179688 321.960938c-3.796876-1.191407-7.832032-1.835938-12.023438-1.835938-22.132812 0-40.078125 17.945312-40.078125 40.078125v144.28125h24.046875v-144.28125c0-17.945313 11.796875-33.132813 28.054688-38.242187zm0 0" fill="#7c6cc4"/><path d="m87.671875 424.328125h208.40625v80.15625h-208.40625zm0 0" fill="#b1a7dc"/><path d="m504.484375 135.765625h-144.28125l24.046875-128.25h96.1875zm0 0" fill="#ffd982"/><path d="m384.25 7.515625-24.046875 128.25h32.0625l24.046875-128.25zm0 0" fill="#ffc02e"/><path d="m503.484375 504.484375-71.140625-40.078125-68.132812 40.078125zm0 0" fill="#928398"/><path d="m420.320312 135.765625h24.046876v336.65625h-24.046876zm0 0" fill="#e0dce2"/><path d="m95.6875 7.515625h192.375v144.28125h-192.375zm0 0" fill="#e98f6d"/><path d="m119.734375 31.5625h144.28125v96.1875h-144.28125zm0 0" fill="#efedf0"/><path d="m135.765625 111.71875v-80.15625h-16.03125v96.1875h144.28125v-16.03125zm0 0" fill="#d0cad3"/><path d="m191.875 63.625c-24.046875-16.03125-32.0625 0-32.0625 8.015625 0 13.28125 32.0625 32.0625 32.0625 32.0625s32.0625-18.78125 32.0625-32.0625c0-8.015625-8.015625-24.046875-32.0625-8.015625zm0 0" fill="#e96fa7"/><path d="m151.296875 280.046875c0-4.148437-3.367187-7.515625-7.515625-7.515625h-8.515625v-8.515625c0-4.148437-3.367187-7.515625-7.515625-7.515625-4.152344 0-7.515625 3.367188-7.515625 7.515625v8.515625h-8.515625c-4.152344 0-7.515625 3.367188-7.515625 7.515625s3.363281 7.515625 7.515625 7.515625h8.515625v8.515625c0 4.148437 3.363281 7.515625 7.515625 7.515625 4.148438 0 7.515625-3.367188 7.515625-7.515625v-8.515625h8.515625c4.152344 0 7.515625-3.367188 7.515625-7.515625zm0 0"/><path d="m239.96875 287.5625h8.515625v8.515625c0 4.148437 3.367187 7.515625 7.515625 7.515625s7.515625-3.367188 7.515625-7.515625v-8.515625h8.515625c4.148438 0 7.515625-3.367188 7.515625-7.515625s-3.367187-7.515625-7.515625-7.515625h-8.515625v-8.515625c0-4.148437-3.367187-7.515625-7.515625-7.515625s-7.515625 3.367188-7.515625 7.515625v8.515625h-8.515625c-4.148438 0-7.515625 3.367188-7.515625 7.515625s3.367187 7.515625 7.515625 7.515625zm0 0"/><path d="m507.171875 497.9375-55.289063-31.148438v-323.507812h52.601563c4.632813 0 8.242187-4.34375 7.386719-8.902344l-24.046875-128.25c-.664063-3.554687-3.769531-6.128906-7.386719-6.128906h-96.1875c-3.617188 0-6.71875 2.574219-7.386719 6.128906l-24.046875 128.25c-.851562 4.558594 2.753906 8.902344 7.386719 8.902344h24.546875v25.046875h-.5c-4.148438 0-7.515625 3.363281-7.515625 7.515625 0 4.148438 3.367187 7.515625 7.515625 7.515625h.5v24.546875c0 4.148438 3.367188 7.515625 7.515625 7.515625 4.152344 0 7.515625-3.367187 7.515625-7.515625v-24.546875h.5c4.152344 0 7.515625-3.367187 7.515625-7.515625 0-4.152344-3.363281-7.515625-7.515625-7.515625h-.5v-25.046875h13.023438v323.898438l-29.054688 17.09375v-124.070313c0-26.242187-21.351562-47.59375-47.59375-47.59375-.167969 0-.332031.011719-.5.015625v-56.625c0-30.664062-24.945312-55.609375-55.609375-55.609375h-176.34375c-30.664063 0-55.609375 24.945313-55.609375 55.609375v56.625c-.167969-.003906-.332031-.015625-.5-.015625-26.242188 0-47.59375 21.351563-47.59375 47.59375v144.28125c0 4.152344 3.363281 7.515625 7.515625 7.515625h495.96875c3.324219 0 6.324219-2.273438 7.230469-5.472656.929687-3.296875-.554688-6.90625-3.542969-8.589844zm-492.140625-137.734375c0-17.953125 14.605469-32.5625 32.5625-32.5625 17.953125 0 32.5625 14.609375 32.5625 32.5625v136.765625h-65.125zm80.15625 71.640625h24.878906c4.152344 0 7.515625-3.363281 7.515625-7.515625 0-4.148437-3.363281-7.515625-7.515625-7.515625h-24.878906v-56.609375c0-20.804687-13.425781-38.523437-32.0625-44.976563v-59.226562c0-22.375 18.203125-40.578125 40.578125-40.578125h176.34375c22.375 0 40.578125 18.203125 40.578125 40.578125v59.226562c-18.636719 6.453126-32.0625 24.171876-32.0625 44.976563v56.609375h-133.089844c-4.152344 0-7.515625 3.367188-7.515625 7.515625 0 4.152344 3.363281 7.515625 7.515625 7.515625h133.09375v65.125h-193.378906zm273.53125 65.125h-65.125v-136.765625c0-17.953125 14.609375-32.5625 32.5625-32.5625 17.957031 0 32.5625 14.609375 32.5625 32.5625zm21.769531-481.9375h83.714844l21.226563 113.21875h-126.171876zm46.363281 128.25v321.625h-9.015624v-321.625zm-45.042968 353.6875 28.957031-17.03125h23.601563c.074218 0 .144531-.007812.214843-.011719l30.253907 17.042969zm0 0"/><path d="m95.6875 159.3125h192.375c4.148438 0 7.515625-3.367188 7.515625-7.515625v-144.28125c0-4.152344-3.367187-7.515625-7.515625-7.515625h-192.375c-4.152344 0-7.515625 3.363281-7.515625 7.515625v144.28125c0 4.148437 3.363281 7.515625 7.515625 7.515625zm7.515625-144.28125h177.34375v129.25h-177.34375zm0 0"/><path d="m264.015625 24.046875h-144.28125c-4.152344 0-7.515625 3.363281-7.515625 7.515625v96.1875c0 4.148438 3.363281 7.515625 7.515625 7.515625h144.28125c4.148437 0 7.515625-3.367187 7.515625-7.515625v-96.1875c0-4.152344-3.363281-7.515625-7.515625-7.515625zm-7.515625 96.1875h-129.25v-81.15625h129.25zm0 0"/><path d="m188.078125 110.1875c2.320313 1.359375 5.273437 1.359375 7.59375 0 8.394531-4.917969 35.78125-22.230469 35.78125-38.546875 0-6.863281-3.558594-15.695313-11.511719-19.953125-5.457031-2.917969-14.597656-4.519531-28.066406 3.109375-13.46875-7.632813-22.613281-6.027344-28.066406-3.109375-7.953125 4.257812-11.511719 13.089844-11.511719 19.953125 0 16.320313 27.386719 33.628906 35.78125 38.546875zm-17.175781-45.246094c.835937-.449218 1.847656-.667968 3.019531-.667968 3.460937 0 8.277344 1.929687 13.785156 5.601562 2.523438 1.683594 5.8125 1.683594 8.335938 0 7.367187-4.910156 13.496093-6.710938 16.804687-4.9375 2.464844 1.320312 3.574219 4.714844 3.574219 6.703125 0 4.277344-11.285156 14.828125-24.550781 23.257813-13.265625-8.417969-24.542969-18.96875-24.542969-23.257813 0-1.988281 1.109375-5.382813 3.574219-6.699219zm0 0"/></svg>