<svg id="Capa_1" enable-background="new 0 0 512 512" height="512" viewBox="0 0 512 512" width="512" xmlns="http://www.w3.org/2000/svg"><g><g><g><g><g><path d="m306.654 151.746c-8.546 0-15.499-6.953-15.499-15.499v-56.072c0-6.658-5.417-12.074-12.075-12.074h-85.363c-6.658 0-12.075 5.416-12.075 12.074v56.072c0 8.546-6.953 15.499-15.499 15.499s-15.499-6.953-15.499-15.499v-56.072c0-23.75 19.322-43.072 43.073-43.072h85.363c23.751 0 43.073 19.322 43.073 43.072v56.072c0 8.547-6.953 15.499-15.499 15.499z" fill="#365e7d"/></g><g><path d="m420.822 434.097h-368.847c-24.563 0-44.476-19.912-44.476-44.476v-231.351c0-24.563 19.912-44.476 44.476-44.476h368.847c24.563 0 44.476 19.912 44.476 44.476v231.351c-.001 24.563-19.913 44.476-44.476 44.476z" fill="#ddb7a0"/><path d="m420.822 113.795h-63.324c24.563 0 44.476 19.912 44.476 44.476v231.351c0 24.563-19.912 44.476-44.476 44.476h63.324c24.563 0 44.476-19.912 44.476-44.476v-231.352c-.001-24.563-19.913-44.475-44.476-44.475z" fill="#d6a889"/><path d="m420.822 113.795h-368.847c-24.563 0-44.476 19.912-44.476 44.476v30.932c0 44.51 36.082 80.592 80.592 80.592h296.613c44.51 0 80.592-36.082 80.592-80.592v-30.933c.001-24.563-19.911-44.475-44.474-44.475z" fill="#cc9675"/><path d="m420.822 113.795h-63.324c24.563 0 44.476 19.912 44.476 44.476v109.65c36.208-7.908 63.324-40.138 63.324-78.718v-30.933c-.001-24.563-19.913-44.475-44.476-44.475z" fill="#c4845c"/></g></g></g><g><path d="m109.802 325.139c-11.479 0-20.784-9.305-20.784-20.784v-48.302c0-11.478 9.305-20.784 20.784-20.784 11.478 0 20.784 9.305 20.784 20.784v48.302c-.001 11.479-9.306 20.784-20.784 20.784z" fill="#f4fbff"/><path d="m89.018 288.801v15.554c0 11.478 9.305 20.784 20.784 20.784 11.478 0 20.784-9.305 20.784-20.784v-15.554z" fill="#e4f6ff"/></g><g><g><g><path d="m282.646 336.019h30.168v63.19h-30.168z" fill="#f4fbff" transform="matrix(.707 .707 -.707 .707 347.145 -102.855)"/><path d="m230.655 467.993 61.159-61.159c3.505-3.505 3.505-9.187 0-12.691l-20.613-20.613c-3.505-3.505-9.187-3.505-12.691 0l-61.159 61.159c-9.197 9.197-9.197 24.107 0 33.304 9.197 9.196 24.107 9.196 33.304 0z" fill="#407093"/><path d="m291.814 394.143-20.613-20.613c-3.504-3.505-9.186-3.505-12.691 0l-13.487 13.487 33.304 33.304 13.487-13.487c3.504-3.505 3.504-9.187 0-12.691z" fill="#4a80aa"/><circle cx="387.691" cy="277.653" fill="#e4f6ff" r="116.782"/><circle cx="387.691" cy="277.653" fill="#cbe2ff" r="82.577"/><path d="m446.082 219.262c-24.347-24.347-60.109-30.3-90.053-17.884 9.718 4.029 18.827 9.982 26.729 17.884 32.248 32.248 32.248 84.533 0 116.782-7.902 7.902-17.011 13.855-26.729 17.884 29.943 12.415 65.706 6.462 90.053-17.884 32.248-32.249 32.248-84.534 0-116.782z" fill="#bed8fb"/></g></g></g></g><g><path d="m475.571 189.773c-.912-.912-1.839-1.802-2.774-2.682v-28.821c0-28.659-23.316-51.975-51.975-51.975h-91.169v-26.12c0-27.886-22.687-50.572-50.572-50.572h-85.363c-27.886 0-50.572 22.686-50.572 50.572v26.12h-91.171c-28.659 0-51.975 23.316-51.975 51.975v231.351c0 28.659 23.316 51.975 51.975 51.975h108.516c4.142 0 7.5-3.358 7.5-7.5s-3.358-7.5-7.5-7.5h-108.516c-20.389 0-36.976-16.587-36.976-36.976v-151.3c14.686 21.784 38.844 36.677 66.519 38.728v27.306c0 15.595 12.688 28.283 28.283 28.283 15.596 0 28.284-12.688 28.284-28.283v-27.061h125.329c0 .12-.004.239-.004.359 0 25.539 7.659 49.898 21.877 70.467l-15.922 15.922c-5.56-1.573-11.79-.184-16.157 4.185l-61.159 61.159c-12.106 12.106-12.106 31.804 0 43.91 12.134 12.134 31.775 12.136 43.91 0l61.159-61.159c4.368-4.368 5.758-10.597 4.185-16.157l15.936-15.936c42.143 29.025 98.319 29.117 140.56.235v9.343c0 20.389-16.587 36.976-36.976 36.976h-118.464c-4.142 0-7.5 3.358-7.5 7.5s3.358 7.5 7.5 7.5h118.463c28.659 0 51.975-23.316 51.975-51.975v-21.407c.934-.878 1.861-1.768 2.774-2.681 48.569-48.569 48.575-127.186 0-175.761zm-317.427-109.598c0-19.615 15.958-35.573 35.573-35.573h85.363c19.615 0 35.573 15.958 35.573 35.573v26.12h-15.999v-26.12c0-10.793-8.781-19.574-19.574-19.574h-85.363c-10.793 0-19.574 8.781-19.574 19.574v26.12h-15.999zm30.998 26.12v-26.12c0-2.522 2.052-4.574 4.575-4.574h85.363c2.523 0 4.575 2.052 4.575 4.574v26.12zm-66.056 175.007h-26.568v-25.248c0-7.325 5.959-13.284 13.284-13.284s13.284 5.959 13.284 13.284zm-13.284 36.337c-7.325 0-13.284-5.959-13.284-13.284v-8.054h26.568v8.054c0 7.325-5.959 13.284-13.284 13.284zm28.283-55.344v-6.241c0-15.595-12.688-28.283-28.284-28.283-15.595 0-28.283 12.688-28.283 28.283v5.931c-37.233-3.336-66.519-34.696-66.519-72.782v-30.933c0-20.389 16.587-36.976 36.976-36.976h368.847c20.389 0 36.976 16.587 36.976 36.976v16.731c-47.425-32.537-114.229-28.988-157.987 14.771-19.815 19.814-32.114 45.141-35.467 72.522h-126.259zm87.267 200.395c-6.272 6.272-16.425 6.273-22.698 0-3.032-3.032-4.701-7.062-4.701-11.349s1.669-8.318 4.701-11.349l42.369-42.369 22.698 22.698zm61.159-61.159-8.184 8.184-22.698-22.698 8.184-8.184c.288-.287.665-.431 1.042-.431s.754.144 1.041.43c.002.001.003.003.005.004l20.61 20.61c.574.575.574 1.51 0 2.085zm5.662-17.635-10.726-10.726 13.167-13.167c1.672 1.885 3.4 3.733 5.197 5.529 1.801 1.801 3.649 3.527 5.531 5.194zm18.244-28.969c-20.641-20.64-32.008-48.084-32.008-77.274s11.367-56.634 32.008-77.274c42.706-42.707 111.836-42.713 154.548 0 42.707 42.706 42.713 111.836 0 154.548-42.708 42.708-111.836 42.713-154.548 0z"/><path d="m469.969 287.951c-4.047-.88-8.043 1.686-8.922 5.735-3.052 14.034-10.06 26.848-20.268 37.055-29.341 29.34-76.832 29.343-106.176 0-29.273-29.273-29.273-76.903 0-106.176 29.341-29.341 76.832-29.344 106.176 0 10.197 10.197 17.203 22.997 20.26 37.016.882 4.047 4.879 6.616 8.925 5.73 4.047-.882 6.612-4.878 5.73-8.925-3.67-16.832-12.076-32.194-24.308-44.427-35.203-35.203-92.181-35.207-127.388 0-35.121 35.121-35.121 92.267 0 127.388 35.12 35.12 92.265 35.122 127.388 0 12.245-12.245 20.654-27.624 24.318-44.474.879-4.047-1.688-8.041-5.735-8.922z"/></g></g></svg>