<?xml version="1.0" encoding="iso-8859-1"?>
<!-- Generator: Adobe Illustrator 19.0.0, SVG Export Plug-In . SVG Version: 6.00 Build 0)  -->
<svg version="1.1" id="Capa_1" xmlns="http://www.w3.org/2000/svg" xmlns:xlink="http://www.w3.org/1999/xlink" x="0px" y="0px"
	 viewBox="0 0 511.999 511.999" style="enable-background:new 0 0 511.999 511.999;" xml:space="preserve">
<path style="fill:#57565C;" d="M79.584,495.547L79.584,495.547c-8.023,0-14.587-6.564-14.587-14.587V166.75
	c0-8.023,6.564-14.587,14.587-14.587l0,0c8.023,0,14.587,6.564,14.587,14.587v314.21C94.171,488.983,87.607,495.547,79.584,495.547z
	"/>
<path style="fill:#2D2D30;" d="M79.584,152.163L79.584,152.163c-8.023,0-14.587,6.564-14.587,14.587v79.736
	c10.233-4.946,19.977-10.499,29.173-16.403V166.75C94.171,158.727,87.607,152.163,79.584,152.163z"/>
<path style="fill:#CC7400;" d="M489.146,179.599c15.888-1.588,21.048-22.236,7.766-31.098c-14.462-9.651-30.88-24.058-46.678-45.499
	C372.502-4.039,290.344,14.465,264.37,24.004c-5.411,1.987-11.329,1.987-16.741,0c-25.974-9.539-108.132-28.042-185.864,78.998
	c-15.799,21.441-32.217,35.848-46.678,45.499c-13.282,8.863-8.122,29.51,7.766,31.098c29.571,2.956,68.288,0.653,106.636-19.649
	c0,0.623-2.519,8.046-7.454,17.684c-9.346,18.253,6.868,39.061,26.874,34.563c41.707-9.377,91.206-30.052,107.09-75.644
	c15.884,45.591,65.384,66.268,107.09,75.644c20.007,4.498,36.221-16.311,26.874-34.563c-4.935-9.639-7.454-17.062-7.454-17.684
	C420.859,180.252,459.574,182.554,489.146,179.599z"/>
<g>
	<path style="fill:#AA6100;" d="M61.765,103.002c-15.799,21.441-32.217,35.848-46.679,45.499
		c-13.282,8.863-8.122,29.51,7.766,31.098c29.571,2.956,68.288,0.653,106.636-19.649c0,0.623-2.517,8.041-7.449,17.674
		c-9.361,18.284,7.016,39.049,27.053,34.531c9.53-2.149,19.461-4.898,29.303-8.39c17.872-35.241,23.887-68.516,26.041-87.862
		c0.961-8.632-6.287-15.897-14.928-15.019c-4.075,0.414-8.231,0.762-12.088,1.047c-8.632,0.639-15.21-7.675-12.499-15.894
		c11.292-34.234,26.61-56.116,39.372-69.581C166.546,16.326,113.19,32.188,61.765,103.002z"/>
	<path style="fill:#AA6100;" d="M254.872,120.01c-0.637,9.685,1.128,16.544,1.128,16.544c15.884,45.591,65.384,66.268,107.09,75.644
		c9.56,2.149,18.245-1.487,23.697-7.854c-49.776-22.186-88.93-65.85-108.891-91.391C270.607,103.625,255.649,108.197,254.872,120.01
		z"/>
	<path style="fill:#AA6100;" d="M503.372,168.662c-45.493-9.905-99.962-31.504-130.185-44.19
		c-9.056-3.801-17.209,6.811-11.302,14.657c9.382,12.463,20.626,20.822,20.626,20.822c38.348,20.302,77.063,22.605,106.636,19.649
		C496.304,178.883,501.275,174.294,503.372,168.662z"/>
</g>
<path d="M501.075,142.263c-16.444-10.974-31.518-25.679-44.772-43.668c-11.165-15.375-23.02-28.995-35.235-40.484
	c-3.017-2.839-7.763-2.693-10.602,0.324c-2.838,3.018-2.692,7.764,0.325,10.602c11.532,10.847,22.76,23.757,33.405,38.415
	c14.322,19.437,30.657,35.346,48.553,47.288c5.164,3.446,4.324,8.692,3.943,10.218c-0.381,1.528-2.105,6.562-8.292,7.18
	c-36.201,3.618-69.708-2.235-99.646-17.4c-1.111-3.777-2.997-10.747-3.998-17.602c-0.599-4.098-4.404-6.938-8.505-6.338
	c-4.099,0.598-6.881,4.398-6.338,8.504c2.788,21.093,11.555,38.197,13.375,41.751c3.018,5.894,2.4,12.534-1.653,17.764
	c-4.078,5.261-10.397,7.53-16.902,6.065c-38.106-8.567-86.675-27.804-101.653-70.795c-1.05-3.013-3.892-5.032-7.083-5.032
	c-3.191,0-6.033,2.02-7.083,5.032c-14.978,42.991-63.547,62.228-101.653,70.795c-6.505,1.466-12.824-0.805-16.902-6.065
	c-4.053-5.229-4.671-11.87-1.653-17.764c1.82-3.554,11.471-20.659,13.376-41.751c0.373-4.125-2.239-7.906-6.338-8.504
	c-4.097-0.593-7.906,2.239-8.505,6.338c-1.001,6.854-2.887,13.825-3.998,17.602c-29.936,15.166-63.442,21.021-99.646,17.4
	c-6.187-0.618-7.911-5.651-8.292-7.18c-0.38-1.525-1.221-6.771,3.943-10.218c17.896-11.942,34.231-27.852,48.584-47.33
	c32.244-44.402,68.556-71.422,107.924-80.308c31.554-7.122,56.953-0.588,69.287,3.942c7.065,2.596,14.847,2.596,21.912,0
	c18.219-6.689,66.443-18.218,120.618,19.138c3.41,2.352,8.081,1.492,10.432-1.917c2.352-3.41,1.493-8.081-1.917-10.433
	C336.141-3.502,282.195,9.468,261.784,16.964c-3.731,1.369-7.84,1.369-11.57,0c-13.885-5.1-42.451-12.465-77.759-4.494
	c-43.027,9.712-82.31,38.688-116.728,86.083c-13.286,18.031-28.359,32.736-44.803,43.71c-8.716,5.816-12.709,16.149-10.171,26.323
	c2.539,10.181,10.921,17.433,21.354,18.476c22.196,2.218,43.956,0.977,64.564-3.571V480.96c0,3.908-3.179,7.087-7.087,7.087
	s-7.087-3.179-7.087-7.087V212.783c0-4.143-3.358-7.5-7.5-7.5s-7.5,3.357-7.5,7.5V480.96c0,12.179,9.908,22.087,22.087,22.087
	s22.087-9.908,22.087-22.087V179.519c4.527-1.397,8.993-2.943,13.375-4.675c-5.292,10.901-3.99,23.546,3.462,33.159
	c7.621,9.833,19.902,14.245,32.047,11.512c51.691-11.622,87.738-33.908,105.445-64.933c17.707,31.023,53.754,53.311,105.445,64.933
	c2.379,0.535,4.762,0.796,7.115,0.796c9.663-0.001,18.805-4.401,24.932-12.308c7.452-9.614,8.754-22.258,3.462-33.159
	c28.501,11.271,60.251,15.485,92.938,12.218c10.433-1.043,18.815-8.295,21.354-18.476
	C513.784,158.412,509.791,148.079,501.075,142.263z"/>
<g>
</g>
<g>
</g>
<g>
</g>
<g>
</g>
<g>
</g>
<g>
</g>
<g>
</g>
<g>
</g>
<g>
</g>
<g>
</g>
<g>
</g>
<g>
</g>
<g>
</g>
<g>
</g>
<g>
</g>
</svg>
