<svg id="Capa_1" enable-background="new 0 0 512 512" height="512" viewBox="0 0 512 512" width="512" xmlns="http://www.w3.org/2000/svg"><g><g clip-rule="evenodd" fill-rule="evenodd"><path d="m156.971 7.512h198.03c21.374 0 38.835 17.462 38.835 38.808v419.361c0 21.346-17.461 38.836-38.835 38.836h-198.03c-21.345 0-38.807-17.49-38.807-38.836v-419.362c0-21.345 17.462-38.807 38.807-38.807z" fill="#c4deff"/><path d="m156.971 504.517h198.03c21.374 0 38.835-17.49 38.835-38.836v-31.352h-275.672v31.352c0 21.345 17.462 38.836 38.807 38.836z" fill="#365e7d"/><path d="m156.971 7.512h198.03c21.374 0 38.835 17.462 38.835 38.808v15.108h-275.672v-15.109c0-21.345 17.462-38.807 38.807-38.807z" fill="#365e7d"/><path d="m217.434 405.246h81.979c11.367 0 20.637-9.27 20.637-20.636 0-11.368-9.27-20.666-20.637-20.666h-81.979c-11.367 0-20.665 9.298-20.665 20.666.001 11.367 9.298 20.636 20.665 20.636z" fill="#b3e59f"/><path d="m270.301 405.246h29.112c11.367 0 20.637-9.27 20.637-20.636 0-11.368-9.27-20.666-20.637-20.666h-29.112c11.339 0 20.637 9.298 20.637 20.666 0 11.367-9.298 20.636-20.637 20.636z" fill="#95d6a4"/><path d="m364.724 434.329v31.352c0 21.346-17.49 38.836-38.835 38.836h29.112c21.374 0 38.835-17.49 38.835-38.836v-31.352zm0-372.901h29.112v-15.109c0-21.346-17.461-38.808-38.835-38.808h-29.112c21.345 0 38.835 17.462 38.835 38.808z" fill="#294b64"/><path d="m364.724 61.428h29.112v372.901h-29.112z" fill="#a5cdff"/><path d="m220.836 316.011c-32.401-15.194-57.997-45.299-49.21-83.057 2.409-9.836 7.767-22.196 13.408-30.587 8.022-11.962 6.435 1.758 7.143 7.313 1.361 10.206 5.216 25.797 13.324 32.685 1.219 1.049 5.527 4.195 5.953.936.227-1.53-.34-6.265-.397-8.277-.312-11.905.992-25.796 3.373-37.446 7.342-34.214 24.549-60.604 58.026-73.759 1.616-.651 9.751-3.94 7.966.709-1.134 3.005-3.657 5.926-5.046 9.525-5.669 14.74-2.041 31.322 5.528 44.674 7.739 13.408 20.892 36.284 17.717 52.526-.822 4.281-1.871 8.023 3.94 3.487 4.904-3.855 9.354-9.638 12.104-15.222 3.657-8.08 4.139-11.396 4.252-20.128.142-9.354 2.324-6.264 5.839-.255 6.973 11.849 11.764 20.949 15.052 34.442 3.118 13.067 3.317 26.192-.878 39.005-6.577 19.672-22.026 33.308-39.516 43.428-5.216 2.494-10.432 4.479-15.619 5.952-7.286-3.203-17.491-3.685-26.051-3.883-9.779-.227-17.858-.539-28.97 1.36-2.637-1.019-5.302-2.153-7.938-3.428z" fill="#e6646e"/><path d="m298.62 231.253c3.175-16.242-9.978-39.118-17.717-52.526-7.569-13.352-11.197-29.934-5.528-44.674 1.389-3.6 3.912-6.521 5.046-9.525 1.786-4.649-6.35-1.36-7.966-.709-10.828 4.253-19.984 9.895-27.638 16.754-2.636 12.954.964 26.73 7.427 38.154 6.86 11.905 20.92 29.311 22.054 45.497 1.558 22.054 20.892 16.157 23.698 11.565-.114-1.049.283-2.75.624-4.536zm12.557 2.325c3.118 13.039 3.317 26.192-.878 39.005-6.605 19.672-22.025 33.308-39.516 43.428-1.786.851-3.543 1.644-5.301 2.353 6.463.396 13.125 1.304 18.312 3.6 5.187-1.474 10.403-3.458 15.619-5.952 17.49-10.12 32.939-23.756 39.516-43.428 4.195-12.812 3.997-25.938.878-39.005-3.288-13.493-8.079-22.594-15.052-34.442-3.515-6.009-5.698-9.099-5.839.255-.113 8.732-.596 12.048-4.252 20.128-1.361 2.749-3.118 5.527-5.131 8.106.595 1.898 1.134 3.883 1.644 5.952z" fill="#dc4655"/><path d="m283.766 321.963c3.543-11.735.142-28.403-9.554-39.402-7.994-9.326-7.909-23.471-5.017-34.809.51-2.013 1.871-4.875 2.098-6.576.482-3.288-4.337-1.531-5.953-.992-29.991 10.233-42.719 32.06-40.508 63.186.369 4.563 1.729 10.487 3.94 16.072 18.341 6.972 36.682 7.793 54.994 2.521z" fill="#ffe17d"/><path d="m283.766 321.963c3.543-11.735.142-28.403-9.554-39.402-7.994-9.326-7.909-23.471-5.017-34.809.51-2.013 1.871-4.875 2.098-6.576.482-3.288-4.337-1.531-5.953-.992-11.027 3.77-19.73 9.1-26.192 15.874-1.162 10.063.113 20.892 6.435 28.602 9.496 11.311 12.926 28.319 9.751 40.594 9.496.536 18.964-.569 28.432-3.291z" fill="#ffc369"/></g><path d="m386.324 143.945c0-4.139 3.374-7.512 7.512-7.512 4.139 0 7.512 3.373 7.512 7.512v321.735c0 12.757-5.216 24.322-13.606 32.713-8.391 8.419-19.985 13.607-32.741 13.607h-198.03c-12.728 0-24.322-5.188-32.712-13.606-8.391-8.391-13.606-19.956-13.606-32.713v-79.881c0-4.139 3.374-7.513 7.512-7.513s7.483 3.374 7.483 7.513v41.018h260.677v-282.873zm-108.908 170.223c.51-3.912.199-8.277-.851-12.643-1.389-5.698-4.054-11.283-7.965-15.733-4.592-5.188-7.2-12.075-8.192-18.851-.907-6.265-.51-12.756.624-18.737-9.638 4.366-16.724 10.29-21.43 17.632-7.172 11.141-9.44 28.658-6.18 41.926.34 1.36.737 2.75 1.162 4.11 7.399 2.494 14.712 3.911 22.025 4.252 6.889.311 13.833-.341 20.807-1.956zm13.691-16.158c.907 3.827 1.418 7.683 1.503 11.424 1.134-.482 2.296-1.02 3.43-1.559 8.135-4.705 15.704-10.206 21.997-16.726 10.771-11.197 16.611-24.35 16.81-39.77.17-11.509-3.005-23.896-7.767-34.328-.765-1.701-1.587-3.346-2.466-5.046-1.871 6.747-5.301 13.295-9.639 18.737-2.381 3.005-5.074 5.754-7.937 7.994-6.803 5.386-11.225 4.762-14.513.595-2.778-3.515-1.814-7.227-1.021-11.168 1.247-6.52-.964-14.911-4.365-23.188-3.628-8.872-8.589-17.519-12.331-24.01-4.451-6.831-8.051-18.142-9.043-26.221-.935-7.512-.425-15.193 1.984-22.62-11.849 5.867-21.118 13.776-28.318 23.329-12.813 17.064-18.596 38.749-20.495 59.812-.539 6.094-.765 12.217-.624 17.887.085 4.223 1.446 8.872-.766 12.783-1.729 3.119-4.365 4.338-7.483 4.338-3.43 0-6.718-1.928-9.241-4.082-4.507-3.799-7.824-9.326-10.29-15.336-2.24-5.499-3.771-11.537-4.734-16.895-.68 1.389-1.332 2.778-1.955 4.224-8.334 18.964-10.063 37.134 1.304 56.325 7.342 12.358 18.993 22.592 32.457 30.02-2.04-15.507.936-33.592 9.383-46.801 6.747-10.488 16.838-18.652 30.502-24.293 3.855-1.588 9.439-3.884 13.549-3.289 5.16.737 8.647 3.572 7.683 10.404-.397 2.721-1.616 4.818-2.268 7.341-1.36 5.358-2.013 11.367-1.219 16.951.538 3.742 2.013 8.221 4.592 11.056 5.555 6.294 9.326 14.146 11.281 22.112zm-35.149 33.052c-14.91-.681-25.626-4.167-38.211-10.177-18.567-8.73-35.122-22.111-45.1-38.977-13.89-23.415-12.359-46.205-2.126-69.535 2.494-5.698 5.442-11.226 8.476-15.761 5.811-8.617 10.885-9.638 15.477-6.548 4.337 2.919 4.535 8.532 4.734 13.691.255 7.059 2.069 14.714 4.62 21.177.114-3.601.34-7.257.681-10.914 2.154-23.896 8.702-47.821 23.329-67.267 6.945-9.241 15.506-17.15 25.938-23.501 4.904-3.004 10.261-5.641 16.044-7.908 3.657-1.445 8.845-3.061 12.671-1.588 4.819 1.844 7.144 5.387 4.734 11.65-1.332 3.488-3.827 6.323-5.074 9.555-2.211 5.725-2.693 11.877-1.927 18.028.935 7.767 3.486 13.918 7.143 20.749 3.969 6.86 9.241 16.073 13.21 25.739 2.551 6.236 4.564 12.699 5.386 18.964.794-1.219 1.503-2.438 2.098-3.656 1.616-3.516 2.495-5.897 2.948-8.222.482-2.381.624-5.045.652-8.957.113-7.427 1.672-11.48 4.536-12.869 6.577-3.26 12.218 4.592 14.826 9.014 3.6 6.123 6.633 11.565 9.241 17.264 5.726 12.558 9.27 26.731 9.099 40.536-.255 19.19-7.483 35.744-20.863 49.664-7.398 7.682-16.158 14.003-25.427 19.389-12.561 7.286-32.687 11.113-47.115 10.46zm19.445 81.696c-4.139 0-7.483-3.373-7.483-7.512s3.345-7.483 7.483-7.483h24.01c3.6 0 6.888-1.475 9.269-3.884 2.41-2.381 3.884-5.669 3.884-9.268 0-3.63-1.474-6.89-3.884-9.299-2.381-2.382-5.669-3.855-9.269-3.855h-81.979c-3.6 0-6.888 1.474-9.269 3.855-2.41 2.409-3.884 5.669-3.884 9.299 0 3.6 1.474 6.888 3.884 9.268 2.381 2.409 5.669 3.884 9.269 3.884h24.01c4.138 0 7.483 3.345 7.483 7.483s-3.345 7.512-7.483 7.512h-24.01c-7.738 0-14.797-3.175-19.899-8.277-5.074-5.073-8.25-12.132-8.25-19.87 0-7.769 3.175-14.798 8.25-19.9 5.102-5.103 12.161-8.249 19.899-8.249h81.979c7.739 0 14.797 3.146 19.899 8.249 5.074 5.103 8.249 12.132 8.249 19.9 0 7.738-3.175 14.797-8.249 19.87-5.103 5.103-12.161 8.277-19.899 8.277zm-28.857-370.805c-4.167 0-7.512-3.345-7.512-7.483 0-4.139 3.345-7.512 7.512-7.512h18.907c4.139 0 7.512 3.373 7.512 7.512s-3.373 7.483-7.512 7.483zm-35.178 434.953c-4.139 0-7.512-3.344-7.512-7.483s3.373-7.512 7.512-7.512h89.264c4.139 0 7.484 3.373 7.484 7.512 0 4.14-3.345 7.483-7.484 7.483zm174.956-407.967h-260.676v282.873c0 4.139-3.345 7.512-7.483 7.512-4.139 0-7.512-3.373-7.512-7.512v-305.493c0-12.729 5.216-24.322 13.606-32.713 8.39-8.39 19.984-13.606 32.712-13.606h198.03c12.756 0 24.35 5.216 32.741 13.606 8.391 8.391 13.606 19.984 13.606 32.713v63.638c0 4.139-3.373 7.512-7.512 7.512-4.138 0-7.512-3.373-7.512-7.512zm-260.676-15.023h260.677v-7.597c0-8.59-3.515-16.413-9.184-22.111-5.698-5.669-13.521-9.212-22.139-9.212h-198.03c-8.589 0-16.413 3.543-22.111 9.212-5.669 5.698-9.212 13.521-9.212 22.111v7.597zm0 387.898v23.867c0 8.618 3.543 16.442 9.212 22.111 5.698 5.697 13.522 9.212 22.111 9.212h198.03c8.618 0 16.441-3.515 22.139-9.212 5.669-5.669 9.184-13.493 9.184-22.111v-23.867z"/></g></svg>