<svg id="Capa_1" enable-background="new 0 0 511.002 511.002" height="512" viewBox="0 0 511.002 511.002" width="512" xmlns="http://www.w3.org/2000/svg"><g id="Outline_49_"><g><g><g><g><circle cx="347.507" cy="191.5" fill="#f9dba8" r="24"/><circle cx="123.507" cy="191.5" fill="#f6c97d" r="24"/><path d="m131.507 135.5v88c0 57.438 46.562 104 104 104s104-46.562 104-104v-88z" fill="#fcedd4"/><path d="m267.507 311.5c-57.438 0-104-46.562-104-104v-72h-32v88c0 57.438 46.562 104 104 104 23.134 0 44.501-7.558 61.775-20.333-9.434 2.814-19.426 4.333-29.775 4.333z" fill="#f9dba8"/><path d="m235.507 279.5c17.673 0 32-14.327 32-32h-64c0 17.673 14.327 32 32 32z" fill="#fff"/></g><g><path d="m107.507 135.5h256v24h-256z" fill="#fcf2a0"/><path d="m235.507 23.5c-64 0-112 41.308-112 112h224c0-70.692-48-112-112-112z" fill="#faec70"/><path d="m255.507 24.914c-6.457-.936-13.136-1.414-20-1.414-64 0-112 41.308-112 112h40c0-63.11 38.257-102.797 92-110.586z" fill="#f7e011"/><path d="m219.507 7.5h32v128h-32z" fill="#fcf2a0"/></g></g><g><path d="m395.507 503.5h-320v-144c0-17.673 14.327-32 32-32h256c17.673 0 32 14.327 32 32z" fill="#ceec6c"/><path d="m163.507 327.5h-56c-17.673 0-32 14.327-32 32v144h56v-144c0-17.673 14.327-32 32-32z" fill="#accd40"/><path d="m291.507 327.5-56 72-48-72z" fill="#fcedd4"/></g><g><path d="m490.034 264.552-91.818-28.027-81.494 266.975h100.373z" fill="#dcd8dc"/><path d="m398.216 236.525-81.494 266.975h37.22l80.482-255.923z" fill="#bab2b8"/><g transform="matrix(.292 -.956 .956 .292 74.839 602.17)"><ellipse cx="444.125" cy="250.538" fill="#eeeced" rx="40" ry="48"/><ellipse cx="444.125" cy="250.538" fill="#978b95" rx="16" ry="24"/></g></g></g><g><path d="m147.507 503.5h-112v-80l56-40 56 40z" fill="#eeeced"/><path d="m59.507 439.5 55.2-39.429-23.2-16.571-56 40v80h24z" fill="#dcd8dc"/><path d="m75.507 455.5h32v48h-32z" fill="#5f88cc"/></g></g><g><path d="m283.507 199c4.142 0 7.5-3.358 7.5-7.5v-8c0-4.142-3.358-7.5-7.5-7.5s-7.5 3.358-7.5 7.5v8c0 4.142 3.358 7.5 7.5 7.5z"/><path d="m187.507 176c-4.142 0-7.5 3.358-7.5 7.5v8c0 4.142 3.358 7.5 7.5 7.5s7.5-3.358 7.5-7.5v-8c0-4.142-3.358-7.5-7.5-7.5z"/><path d="m216.153 222.208 16 8c1.077.539 2.221.793 3.348.793 2.751 0 5.4-1.52 6.714-4.147 1.853-3.705.351-8.21-3.354-10.062l-9.292-4.646 12.646-25.292c1.853-3.705.351-8.21-3.354-10.062-3.705-1.854-8.21-.35-10.062 3.354l-16 32c-1.852 3.705-.351 8.21 3.354 10.062z"/><path d="m275.007 247.5c0-4.142-3.358-7.5-7.5-7.5h-64c-4.142 0-7.5 3.358-7.5 7.5 0 21.78 17.72 39.5 39.5 39.5s39.5-17.72 39.5-39.5zm-62.826 7.5h46.652c-3.175 9.853-12.432 17-23.326 17s-20.151-7.147-23.326-17z"/><path d="m457.992 205.107c-29.269-8.933-59.303 4.178-66.95 29.228l-26.16 85.699c-.459-.016-.917-.035-1.376-.035h-72-.195c33.272-19.315 55.695-55.337 55.695-96.5v-.521c.167.003.332.021.5.021 17.369 0 31.5-14.131 31.5-31.5 0-10.246-4.92-19.363-12.519-25.119 2.658-1.153 4.519-3.799 4.519-6.881v-24c0-4.142-3.358-7.5-7.5-7.5h-8.7c-1.384-28.918-10.792-54.189-27.459-73.43-16.894-19.502-40.493-32.138-68.341-36.682v-10.387c0-4.142-3.358-7.5-7.5-7.5h-32c-4.142 0-7.5 3.358-7.5 7.5v10.386c-27.65 4.509-51.109 16.993-67.992 36.282-16.886 19.295-26.415 44.705-27.808 73.832h-8.699c-4.142 0-7.5 3.358-7.5 7.5v24c0 3.082 1.861 5.728 4.519 6.881-7.599 5.756-12.519 14.873-12.519 25.119 0 17.369 14.131 31.5 31.5 31.5.168 0 .333-.018.5-.021v.521c0 41.163 22.424 77.185 55.695 96.5h-72.195c-21.78 0-39.5 17.72-39.5 39.5v31.569l-36.859 26.328c-1.971 1.408-3.141 3.681-3.141 6.103v72.5h-8.5c-4.142 0-7.5 3.358-7.5 7.5s3.358 7.5 7.5 7.5h144c4.142 0 7.5-3.358 7.5-7.5s-3.358-7.5-7.5-7.5h-8.5v-72.5c0-2.422-1.17-4.695-3.141-6.103l-56-40c-2.607-1.862-6.111-1.862-8.719 0l-4.141 2.958v-20.855c0-13.509 10.991-24.5 24.5-24.5h75.986l45.773 68.66c1.337 2.006 3.557 3.247 5.966 3.335.092.003.183.005.274.005 2.309 0 4.496-1.065 5.919-2.896l53.751-69.104h65.14l-50.766 166.311c-1.209 3.961 1.022 8.153 4.984 9.363.729.223 1.467.329 2.192.329 3.212 0 6.184-2.081 7.171-5.313l72.003-235.884c.395.666.802 1.328 1.232 1.985 7.425 11.337 19.189 19.924 33.126 24.179 6.197 1.892 12.514 2.833 18.72 2.833 7.75 0 15.326-1.469 22.263-4.39.723-.304 1.431-.627 2.13-.959l-63.449 207.858c-1.209 3.961 1.022 8.153 4.984 9.363.729.223 1.467.329 2.192.329 3.212 0 6.184-2.081 7.171-5.313l72.939-238.948c7.646-25.052-9.945-52.701-39.215-61.636zm-374.985 290.893v-33h17v33zm8.5-103.283 48.5 34.643v68.64h-25v-40.5c0-4.142-3.358-7.5-7.5-7.5h-32c-4.142 0-7.5 3.358-7.5 7.5v40.5h-25v-68.64zm256-184.717c-.167 0-.333-.016-.5-.021v-32.958c.167-.005.332-.021.5-.021 9.098 0 16.5 7.402 16.5 16.5s-7.402 16.5-16.5 16.5zm-120.5-193h17v113h-17zm-15 18.095v94.905h-80.776c2.721-50.47 32.993-86.116 80.776-94.905zm-97 109.905h165.457c4.142 0 7.5-3.358 7.5-7.5s-3.358-7.5-7.5-7.5h-21.457v-94.908c47.754 8.792 78.048 44.511 80.776 94.908h-23.06c-4.142 0-7.5 3.358-7.5 7.5s3.358 7.5 7.5 7.5h39.285v9h-241v-9zm8.5 65c-9.098 0-16.5-7.402-16.5-16.5s7.402-16.5 16.5-16.5c.168 0 .333.016.5.021v32.958c-.167.005-.332.021-.5.021zm15.5 15.5v-56.5h193v56.5c0 53.21-43.29 96.5-96.5 96.5s-96.5-43.29-96.5-96.5zm96.968 163.182-34.454-51.682h74.651zm229.445-106.095c-9.262 3.899-20.195 4.267-30.783 1.035s-19.451-9.642-24.958-18.05c-5.224-7.978-6.748-16.805-4.29-24.858 4.048-13.262 17.914-21.435 33.876-21.435 4.667 0 9.515.699 14.348 2.174 21.359 6.52 34.479 25.769 29.248 42.908-2.458 8.054-8.652 14.526-17.441 18.226z"/><path d="m450.986 228.062c-7.532-2.299-15.326-2.47-21.946-.482-7.585 2.278-13.068 7.294-15.042 13.761-1.975 6.468-.228 13.691 4.792 19.817 4.381 5.347 10.942 9.557 18.475 11.856 4.16 1.27 8.28 1.873 12.187 1.873 11.956 0 21.901-5.654 24.801-15.153 3.846-12.603-6.373-26.515-23.267-31.672zm8.92 27.293c-1.013 3.314-8.631 6.254-18.263 3.313-4.662-1.423-8.763-3.981-11.252-7.017-1.247-1.522-2.574-3.595-2.116-5.661.388-1.751 2.069-2.83 3.603-3.502 4.555-1.995 10.089-1.494 14.728-.078 9.634 2.939 14.312 9.631 13.3 12.945z"/></g></g></svg>