<svg id="Capa_1" enable-background="new 0 0 512 512" height="512" viewBox="0 0 512 512" width="512" xmlns="http://www.w3.org/2000/svg"><g><g><g><path d="m41.774 381.966h124.741v51.779h-124.741z" fill="#b1e4f9" transform="matrix(.707 -.707 .707 .707 -257.894 193.099)"/></g><g><path d="m50.927 404.064h124.741v25.89h-124.741z" fill="#90d8f9" transform="matrix(.707 -.707 .707 .707 -261.686 202.253)"/></g><g><path d="m142.732 324.549h37.658v51.779h-37.658z" fill="#ffd064" transform="matrix(.707 -.707 .707 .707 -200.478 216.882)"/></g><g><path d="m151.886 346.647h37.658v25.89h-37.658z" fill="#ffc250" transform="matrix(.707 -.707 .707 .707 -204.269 226.036)"/></g><g><path d="m37.574 429.491 44.935 44.935c4.596 4.596 4.596 12.047 0 16.643l-9.986 9.986c-4.596 4.596-12.047 4.596-16.643 0l-44.935-44.935c-4.596-4.596-4.596-12.047 0-16.643l9.986-9.986c4.597-4.596 12.048-4.596 16.643 0z" fill="#ffd064"/></g><g><path d="m82.509 474.426-18.307-18.307c4.596 4.596 4.596 12.047 0 16.643l-9.986 9.986c-4.596 4.596-12.047 4.596-16.643 0l18.307 18.307c4.596 4.596 12.047 4.596 16.643 0l9.985-9.986c4.597-4.597 4.597-12.048.001-16.643z" fill="#ffc250"/></g><g><path d="m444.484 267.226c68.936-68.936 80.112-169.525 24.964-224.674s-155.739-43.971-224.674 24.964c-43.339 43.339-63.843 99.187-59.392 148.39 3.266 36.097-6.215 72.192-27.692 101.388l-1.121 1.524 36.613 36.613 1.707-1.252c29.141-21.37 65.129-30.849 101.116-27.57 49.224 4.485 105.113-16.017 148.479-59.383zm-198.046-1.664c-18.419-18.419-26.676-45.545-23.251-76.38 3.775-33.97 20.897-67.721 48.214-95.038s61.068-44.439 95.038-48.215c30.835-3.426 57.961 4.831 76.38 23.251 18.42 18.42 26.676 45.545 23.251 76.38-3.775 33.969-20.897 67.721-48.214 95.038s-61.069 44.439-95.038 48.214c-30.835 3.426-57.96-4.83-76.38-23.25z" fill="#eab14d"/></g><g><path d="m502.67 155.981c-17.976 54.178-63.088 101.936-125.559 125.083-69.896 25.899-143.385 14.269-193.473-24.492-3.905 21.8-12.612 42.591-25.949 60.721l-1.121 1.524 36.613 36.613 1.707-1.252c29.141-21.37 65.129-30.849 101.116-27.57 49.224 4.484 105.113-16.018 148.479-59.383 32.703-32.701 52.396-72.525 58.187-111.244z" fill="#e7a52e"/></g></g><g><g><circle cx="381.245" cy="443.893" fill="#66b394" r="60.607"/></g><g><path d="m414.028 392.928c6.093 9.453 9.643 20.7 9.643 32.782 0 33.473-27.135 60.607-60.607 60.607-12.083 0-23.329-3.55-32.782-9.643 10.787 16.734 29.574 27.825 50.964 27.825 33.473 0 60.607-27.135 60.607-60.607 0-21.389-11.091-40.177-27.825-50.964z" fill="#5aa687"/></g></g><g><path d="m474.754 37.245c-28.319-28.315-68.559-41.171-113.304-36.198-44.121 4.903-87.442 26.626-121.983 61.168-7.987 7.987-15.399 16.576-22.031 25.527-2.466 3.328-1.767 8.025 1.561 10.491 3.328 2.464 8.025 1.766 10.491-1.561 6.194-8.36 13.12-16.384 20.586-23.851 65.901-65.902 161.934-77.101 214.074-24.97 52.133 52.143 40.932 148.176-24.968 214.075-40.298 40.288-93.569 61.671-142.492 57.213-36.78-3.356-73.076 6.035-102.711 26.486l-27.597-27.598c20.416-29.607 29.802-65.927 26.472-102.802-2.649-29.293 3.881-60.38 18.885-89.902 1.876-3.692.405-8.208-3.288-10.084-3.692-1.878-8.207-.406-10.084 3.287-16.284 32.039-23.356 65.944-20.453 98.049 3.141 34.782-6.186 68.975-26.237 96.245l-.818 1.1-26.221 26.221c-.02.02-.036.041-.055.061l-82.901 82.903c-7.562-6.397-18.924-6.046-26.052 1.083l-9.985 9.985c-3.639 3.639-5.643 8.478-5.643 13.624s2.004 9.985 5.643 13.624l44.934 44.934c3.64 3.641 8.478 5.644 13.625 5.644s9.985-2.005 13.624-5.643l9.985-9.985c3.64-3.64 5.644-8.478 5.644-13.625 0-4.604-1.615-8.955-4.559-12.428l38.521-38.521c2.929-2.93 2.929-7.677 0-10.607-2.928-2.928-7.677-2.928-10.606 0l-38.466 38.466-26.002-26.002 77.601-77.601 26.002 26.002-14.396 14.396c-2.929 2.93-2.929 7.677 0 10.607 2.929 2.928 7.677 2.928 10.606 0l19.649-19.649c.016-.016.034-.03.051-.046l26.214-26.213 1.257-.926c27.293-20.017 61.391-29.304 95.999-26.148 53.315 4.865 111.05-18.144 154.46-61.543 34.541-34.541 56.263-77.862 61.167-121.983 4.973-44.745-7.883-84.984-36.199-113.305zm-397.548 448.52-9.986 9.986c-.806.807-1.878 1.25-3.017 1.25-1.14 0-2.212-.444-3.018-1.251l-44.935-44.935c-1.664-1.664-1.664-4.371 0-6.036l9.985-9.985c.832-.832 1.925-1.248 3.018-1.248s2.186.416 3.018 1.248l44.934 44.935c.806.806 1.25 1.878 1.25 3.017.001 1.141-.443 2.213-1.249 3.019zm63.343-140.321 16.018-16.018 26.007 26.007-16.018 16.017z"/><path d="m309.362 297.073c4.668 0 9.435-.267 14.285-.806 35.652-3.963 70.987-21.846 99.5-50.354.004-.004.009-.007.013-.011s.007-.008.011-.012c28.509-28.514 46.391-63.85 50.353-99.5 3.681-33.137-5.335-62.434-25.387-82.498-.005-.005-.009-.01-.013-.015-.005-.005-.01-.008-.014-.013-20.062-20.054-49.358-29.073-82.498-25.387-35.655 3.963-70.995 21.849-99.513 50.364-28.516 28.516-46.402 63.858-50.365 99.514-3.682 33.145 5.339 62.449 25.401 82.511 17.128 17.126 40.989 26.207 68.227 26.207zm-60.418-161.524 11.479 11.479-16.022 16.022-5.762-5.762c2.801-7.39 6.252-14.66 10.305-21.739zm22.57-30.686 15.537 15.537-16.021 16.021-13.835-13.836c4.31-6.121 9.094-12.046 14.319-17.722zm28.33-24.926 13.835 13.835-16.021 16.021-15.537-15.537c5.676-5.224 11.601-10.008 17.723-14.319zm34.701-18.554 5.762 5.762-16.021 16.021-11.479-11.479c7.078-4.053 14.348-7.504 21.738-10.304zm97.371 8.094-34.031 34.031-12.835-12.835 30.861-30.861c5.808 2.558 11.169 5.788 16.005 9.665zm20.272 26.612-30.861 30.861-12.835-12.835 34.031-34.031c3.877 4.836 7.107 10.197 9.665 16.005zm-11.875 103.104-11.479-11.479 16.021-16.021 5.762 5.761c-2.8 7.391-6.251 14.661-10.304 21.739zm-22.57 30.686-15.537-15.537 16.021-16.021 13.835 13.835c-4.31 6.122-9.094 12.047-14.319 17.723zm-28.33 24.927-13.835-13.835 16.021-16.021 15.537 15.537c-5.675 5.224-11.6 10.008-17.723 14.319zm-34.701 18.554-5.762-5.762 16.021-16.021 11.479 11.479c-7.078 4.053-14.348 7.504-21.738 10.304zm-97.37-8.095 34.031-34.031 12.835 12.835-30.861 30.861c-5.809-2.557-11.17-5.788-16.005-9.665zm44.637-44.638 16.021-16.021 12.835 12.835-16.021 16.021zm42.65-42.649 12.835 12.835-16.021 16.021-12.835-12.835zm-26.628 5.415-12.835-12.835 16.021-16.021 12.835 12.835zm50.07 18.027 12.922 12.922-16.021 16.021-12.922-12.922zm10.607-10.607 16.021-16.021 12.922 12.922-16.021 16.021zm26.628-26.628 16.021-16.021 12.922 12.922-16.021 16.021zm-10.607-10.607-12.835-12.835 16.021-16.021 12.835 12.835zm-10.607 10.607-16.021 16.021-12.835-12.835 16.021-16.021zm-39.463-7.421-12.835-12.835 16.021-16.021 12.835 12.835zm-23.442-23.442-12.922-12.922 16.021-16.021 12.922 12.922zm-10.607 10.607-16.021 16.021-12.922-12.922 16.021-16.021zm-26.628 26.628-16.022 16.022-12.922-12.922 16.022-16.022zm10.607 10.607 12.835 12.835-16.021 16.021-12.836-12.835zm46.884 46.884 12.922 12.922-16.021 16.021-12.922-12.922zm117.807-91.963-14.394 14.394-12.922-12.922 25.383-25.383c1.581 7.516 2.234 15.53 1.933 23.911zm-71.972-21.97-16.021 16.021-12.835-12.835 16.021-16.021zm-39.463-7.421-12.922-12.922 16.021-16.021 12.922 12.922zm-117.807 91.963 14.394-14.394 12.922 12.922-25.383 25.383c-1.581-7.515-2.235-15.529-1.933-23.911zm37.922 9.135 12.836 12.836-34.031 34.031c-3.877-4.836-7.108-10.197-9.666-16.006zm21.501 72.268 25.383-25.383 12.922 12.922-14.395 14.395c-8.381.3-16.394-.354-23.91-1.934zm110.395-225.377-25.383 25.383-12.922-12.922 14.394-14.394c8.381-.301 16.395.353 23.911 1.933z"/><path d="m381.245 375.786c-37.554 0-68.107 30.553-68.107 68.107 0 37.555 30.553 68.108 68.107 68.108 21.684 0 42.262-10.467 55.048-28 2.44-3.347 1.706-8.038-1.641-10.478-3.347-2.441-8.038-1.708-10.478 1.641-9.972 13.674-26.02 21.838-42.929 21.838-29.283 0-53.107-23.824-53.107-53.108 0-15.01 6.269-28.574 16.315-38.243v28.142c0 20.287 16.505 36.793 36.793 36.793s36.794-16.505 36.794-36.793v-28.143c10.046 9.668 16.315 23.233 16.315 38.242 0 .856-.023 1.755-.071 2.748-.2 4.138 2.992 7.653 7.129 7.853 4.162.205 7.653-2.992 7.853-7.129.06-1.236.089-2.372.089-3.473-.002-37.553-30.555-68.105-68.11-68.105zm21.794 58.006c0 12.017-9.777 21.793-21.794 21.793s-21.793-9.776-21.793-21.793v-38.31c6.655-3.008 14.028-4.697 21.793-4.697s15.139 1.689 21.794 4.697z"/></g></g></svg>