<?xml version="1.0" encoding="iso-8859-1"?>
<!-- Generator: Adobe Illustrator 21.0.0, SVG Export Plug-In . SVG Version: 6.00 Build 0)  -->
<svg xmlns="http://www.w3.org/2000/svg" xmlns:xlink="http://www.w3.org/1999/xlink" version="1.1" id="Capa_1" x="0px" y="0px" viewBox="0 0 512 512" style="enable-background:new 0 0 512 512;" xml:space="preserve" width="512" height="512">
<g>
	<path style="fill:#B5FCFF;" d="M500.5,381h-489c-2.209,0-4-1.791-4-4V45c0-2.209,1.791-4,4-4h489c2.209,0,4,1.791,4,4v332   C504.5,379.209,502.709,381,500.5,381z"/>
	<rect x="7.5" y="321" style="fill:#3BE3EB;" width="497" height="30"/>
	<path style="fill:#71F6FC;" d="M503.517,381h-28.034c-0.543,0-0.983-0.44-0.983-0.983V41.983c0-0.543,0.44-0.983,0.983-0.983   h28.034c0.543,0,0.983,0.44,0.983,0.983v338.034C504.5,380.56,504.06,381,503.517,381z"/>
	<path style="fill:#71F6FC;" d="M503.517,381h-28.034c-0.543,0-0.983-0.44-0.983-0.983V41.983c0-0.543,0.44-0.983,0.983-0.983   h28.034c0.543,0,0.983,0.44,0.983,0.983v338.034C504.5,380.56,504.06,381,503.517,381z"/>
	<path style="fill:#2BC3D4;" d="M504.5,321v59.02c0,0.54-0.44,0.98-0.98,0.98h-28.04c-0.54,0-0.98-0.44-0.98-0.98V321H504.5z"/>
	<path style="fill:#685C79;" d="M7.5,377v-26h497v26c0,2.209-1.791,4-4,4h-489C9.291,381,7.5,379.209,7.5,377z"/>
	<path style="fill:#594F69;" d="M474.5,351v26c0,2.209-1.791,4-4,4h30c2.209,0,4-1.791,4-4v-26H474.5z"/>
	<g>
		<path style="fill:#594F69;" d="M87,423L87,423c-8.284,0-15-6.716-15-15v-27h30v27C102,416.284,95.284,423,87,423z"/>
		<path style="fill:#594F69;" d="M425,423L425,423c-8.284,0-15-6.716-15-15v-27h30v27C440,416.284,433.284,423,425,423z"/>
	</g>
	<path style="fill:#D5DFE8;" d="M308,471H204c-4.418,0-8-3.582-8-8V269c0-4.418,3.582-8,8-8h104c4.418,0,8,3.582,8,8v194   C316,467.418,312.418,471,308,471z"/>
	
		<rect x="211" y="322" transform="matrix(-1.836970e-16 1 -1 -1.836970e-16 638 126)" style="fill:#FF2C5C;" width="90" height="120"/>
	<g>
		<path style="fill:#CAD2DB;" d="M316,269v194c0,4.42-3.58,8-8,8h-30c4.42,0,8-3.58,8-8V269c0-4.42-3.58-8-8-8h30    C312.42,261,316,264.58,316,269z"/>
	</g>
	<rect x="286" y="337" style="fill:#E62753;" width="30" height="90"/>
	<path style="fill:#FF2C5C;" d="M132,174H62c-5.523,0-10-4.477-10-10V94c0-5.523,4.477-10,10-10h70c5.523,0,10,4.477,10,10v70   C142,169.523,137.523,174,132,174z"/>
	<path style="fill:#FFD659;" d="M450,174H187.888c-5.523,0-10-4.477-10-10V94c0-5.523,4.477-10,10-10H450c5.523,0,10,4.477,10,10v70   C460,169.523,455.523,174,450,174z"/>
	<circle style="fill:#FF2C5C;" cx="233" cy="299" r="15"/>
	<g>
		<path d="M500.5,33.5h-489C5.159,33.5,0,38.659,0,45v18.75c0,4.142,3.357,7.5,7.5,7.5s7.5-3.358,7.5-7.5V48.5h482v295H323.5V269    c0-8.547-6.953-15.5-15.5-15.5H204c-8.547,0-15.5,6.953-15.5,15.5v74.5H15V96c0-4.142-3.357-7.5-7.5-7.5S0,91.858,0,96v281    c0,6.341,5.159,11.5,11.5,11.5h53V408c0,12.407,10.094,22.5,22.5,22.5s22.5-10.093,22.5-22.5v-19.5h79V463    c0,8.547,6.953,15.5,15.5,15.5h104c8.547,0,15.5-6.953,15.5-15.5v-74.5h79V408c0,12.407,10.094,22.5,22.5,22.5    s22.5-10.093,22.5-22.5v-19.5h53c6.341,0,11.5-5.159,11.5-11.5V45C512,38.659,506.841,33.5,500.5,33.5z M204,268.5h104    c0.275,0,0.5,0.224,0.5,0.5v60.5h-105V269C203.5,268.724,203.725,268.5,204,268.5z M94.5,408c0,4.136-3.364,7.5-7.5,7.5    s-7.5-3.364-7.5-7.5v-19.5h15V408z M15,373.5v-15h173.5v15H15z M308,463.5H204c-0.275,0-0.5-0.224-0.5-0.5v-28.5H256    c4.143,0,7.5-3.358,7.5-7.5s-3.357-7.5-7.5-7.5h-52.5v-75h105v75h-20.417c-4.143,0-7.5,3.358-7.5,7.5s3.357,7.5,7.5,7.5H308.5V463    C308.5,463.276,308.275,463.5,308,463.5z M432.5,408c0,4.136-3.364,7.5-7.5,7.5s-7.5-3.364-7.5-7.5v-19.5h15V408z M323.5,373.5    v-15H497v15H323.5z"/>
		<path d="M149.5,94c0-9.649-7.851-17.5-17.5-17.5H62c-9.649,0-17.5,7.851-17.5,17.5v70c0,9.649,7.851,17.5,17.5,17.5h70    c9.649,0,17.5-7.851,17.5-17.5V94z M134.5,164c0,1.378-1.121,2.5-2.5,2.5H62c-1.379,0-2.5-1.122-2.5-2.5V94    c0-1.378,1.121-2.5,2.5-2.5h70c1.379,0,2.5,1.122,2.5,2.5V164z"/>
		<path d="M450,166.5h-21.833c-4.143,0-7.5,3.358-7.5,7.5s3.357,7.5,7.5,7.5H450c9.649,0,17.5-7.851,17.5-17.5V94    c0-9.649-7.851-17.5-17.5-17.5H187.888c-9.649,0-17.5,7.851-17.5,17.5v70c0,9.649,7.851,17.5,17.5,17.5h208.279    c4.143,0,7.5-3.358,7.5-7.5s-3.357-7.5-7.5-7.5H187.888c-1.379,0-2.5-1.122-2.5-2.5V94c0-1.378,1.121-2.5,2.5-2.5H450    c1.379,0,2.5,1.122,2.5,2.5v70C452.5,165.378,451.379,166.5,450,166.5z"/>
		<path d="M233,321.5c12.406,0,22.5-10.093,22.5-22.5s-10.094-22.5-22.5-22.5s-22.5,10.093-22.5,22.5S220.594,321.5,233,321.5z     M233,291.5c4.136,0,7.5,3.364,7.5,7.5s-3.364,7.5-7.5,7.5s-7.5-3.364-7.5-7.5S228.864,291.5,233,291.5z"/>
		<path d="M239.75,361.067h-15c-4.143,0-7.5,3.358-7.5,7.5s3.357,7.5,7.5,7.5h15c4.143,0,7.5-3.358,7.5-7.5    S243.893,361.067,239.75,361.067z"/>
		<path d="M272.25,376.067h15c4.143,0,7.5-3.358,7.5-7.5s-3.357-7.5-7.5-7.5h-15c-4.143,0-7.5,3.358-7.5,7.5    S268.107,376.067,272.25,376.067z"/>
		<path d="M239.75,387.933h-15c-4.143,0-7.5,3.358-7.5,7.5s3.357,7.5,7.5,7.5h15c4.143,0,7.5-3.358,7.5-7.5    S243.893,387.933,239.75,387.933z"/>
		<path d="M294.75,395.433c0-4.142-3.357-7.5-7.5-7.5h-15c-4.143,0-7.5,3.358-7.5,7.5s3.357,7.5,7.5,7.5h15    C291.393,402.933,294.75,399.575,294.75,395.433z"/>
		<path d="M139,201H53c-4.143,0-7.5,3.358-7.5,7.5s3.357,7.5,7.5,7.5h86c4.143,0,7.5-3.358,7.5-7.5S143.143,201,139,201z"/>
		<path d="M139,230.5H53c-4.143,0-7.5,3.358-7.5,7.5s3.357,7.5,7.5,7.5h86c4.143,0,7.5-3.358,7.5-7.5S143.143,230.5,139,230.5z"/>
		<path d="M139,260H53c-4.143,0-7.5,3.358-7.5,7.5s3.357,7.5,7.5,7.5h86c4.143,0,7.5-3.358,7.5-7.5S143.143,260,139,260z"/>
	</g>
</g>















</svg>
